<svg xmlns="http://www.w3.org/2000/svg" width="700" height="250" viewBox="0 0 700 250" font-family="Arial, Helvetica, sans-serif">
<rect width="700" height="250" fill="#FAFAFA" rx="8"/>
<text x="350" y="24" text-anchor="middle" font-size="14" font-weight="bold" fill="#333">Signal Processing Pipeline</text>
<defs><marker id="a2" markerWidth="7" markerHeight="5" refX="7" refY="2.5" orient="auto"><polygon points="0 0, 7 2.5, 0 5" fill="#AAA"/></marker></defs>
<rect x="10" y="45" width="120" height="60" fill="white" stroke="#4A90D9" stroke-width="2" rx="5"/>
<text x="70.0" y="67" text-anchor="middle" font-size="10" fill="#4A90D9" font-weight="bold">Raw Position</text>
<text x="70.0" y="85" text-anchor="middle" font-size="9" fill="#666">Controller local pos</text>
<rect x="155" y="45" width="120" height="60" fill="white" stroke="#7ED321" stroke-width="2" rx="5"/>
<text x="215.0" y="67" text-anchor="middle" font-size="10" fill="#7ED321" font-weight="bold">Abdomen Ref.</text>
<text x="215.0" y="85" text-anchor="middle" font-size="9" fill="#666">HMD - 0.5m offset</text>
<rect x="300" y="45" width="120" height="60" fill="white" stroke="#F5A623" stroke-width="2" rx="5"/>
<text x="360.0" y="67" text-anchor="middle" font-size="10" fill="#F5A623" font-weight="bold">Forward Proj.</text>
<text x="360.0" y="85" text-anchor="middle" font-size="9" fill="#666">Dot with localFwd</text>
<rect x="445" y="45" width="120" height="60" fill="white" stroke="#D0021B" stroke-width="2" rx="5"/>
<text x="505.0" y="67" text-anchor="middle" font-size="10" fill="#D0021B" font-weight="bold">EMA Baseline</text>
<text x="505.0" y="85" text-anchor="middle" font-size="9" fill="#666">tau=1.6s, freeze</text>
<rect x="590" y="45" width="100" height="60" fill="white" stroke="#9013FE" stroke-width="2" rx="5"/>
<text x="640.0" y="67" text-anchor="middle" font-size="10" fill="#9013FE" font-weight="bold">Signal</text>
<text x="640.0" y="85" text-anchor="middle" font-size="9" fill="#666">raw - baseline</text>
<line x1="130" y1="75.0" x2="155" y2="75.0" stroke="#AAA" stroke-width="1.5" marker-end="url(#a2)"/>
<line x1="275" y1="75.0" x2="300" y2="75.0" stroke="#AAA" stroke-width="1.5" marker-end="url(#a2)"/>
<line x1="420" y1="75.0" x2="445" y2="75.0" stroke="#AAA" stroke-width="1.5" marker-end="url(#a2)"/>
<line x1="565" y1="75.0" x2="590" y2="75.0" stroke="#AAA" stroke-width="1.5" marker-end="url(#a2)"/>
<rect x="10" y="150" width="120" height="60" fill="white" stroke="#9013FE" stroke-width="2" rx="5"/>
<text x="70.0" y="172" text-anchor="middle" font-size="10" fill="#9013FE" font-weight="bold">Velocity Est.</text>
<text x="70.0" y="190" text-anchor="middle" font-size="9" fill="#666">dSignal / dt</text>
<rect x="155" y="150" width="120" height="60" fill="white" stroke="#D0021B" stroke-width="2" rx="5"/>
<text x="215.0" y="172" text-anchor="middle" font-size="10" fill="#D0021B" font-weight="bold">Power LP</text>
<text x="215.0" y="190" text-anchor="middle" font-size="9" fill="#666">EMA tau=0.18s</text>
<rect x="300" y="150" width="120" height="60" fill="white" stroke="#F5A623" stroke-width="2" rx="5"/>
<text x="360.0" y="172" text-anchor="middle" font-size="10" fill="#F5A623" font-weight="bold">Dead Zone</text>
<text x="360.0" y="190" text-anchor="middle" font-size="9" fill="#666">InverseLerp map</text>
<rect x="445" y="150" width="120" height="60" fill="white" stroke="#7ED321" stroke-width="2" rx="5"/>
<text x="505.0" y="172" text-anchor="middle" font-size="10" fill="#7ED321" font-weight="bold">Gait Axis</text>
<text x="505.0" y="190" text-anchor="middle" font-size="9" fill="#666">Smooth [0,1]</text>
<rect x="590" y="150" width="100" height="60" fill="white" stroke="#4A90D9" stroke-width="2" rx="5"/>
<text x="640.0" y="172" text-anchor="middle" font-size="10" fill="#4A90D9" font-weight="bold">Speed</text>
<text x="640.0" y="190" text-anchor="middle" font-size="9" fill="#666">x maxSpeed</text>
<line x1="130" y1="180.0" x2="155" y2="180.0" stroke="#AAA" stroke-width="1.5" marker-end="url(#a2)"/>
<line x1="275" y1="180.0" x2="300" y2="180.0" stroke="#AAA" stroke-width="1.5" marker-end="url(#a2)"/>
<line x1="420" y1="180.0" x2="445" y2="180.0" stroke="#AAA" stroke-width="1.5" marker-end="url(#a2)"/>
<line x1="565" y1="180.0" x2="590" y2="180.0" stroke="#AAA" stroke-width="1.5" marker-end="url(#a2)"/>
<line x1="640" y1="105" x2="70" y2="150" stroke="#AAA" stroke-width="1.5" stroke-dasharray="4,3" marker-end="url(#a2)"/>
</svg>