<svg xmlns="http://www.w3.org/2000/svg" width="600" height="320" viewBox="0 0 600 320" font-family="Arial, Helvetica, sans-serif">
<rect width="600" height="320" fill="#FAFAFA" rx="8"/>
<text x="300" y="28" text-anchor="middle" font-size="15" font-weight="bold" fill="#333">Subjective Ratings — Average (1-10)</text>
<!-- Grid -->
<line x1="220" y1="250" x2="560" y2="250" stroke="#cbd5e1" stroke-width="1"/>
<line x1="220" y1="45" x2="220" y2="250" stroke="#e2e8f0" stroke-width="0.5" stroke-dasharray="3"/>
<line x1="254" y1="45" x2="254" y2="250" stroke="#e2e8f0" stroke-width="0.5" stroke-dasharray="3"/>
<line x1="288" y1="45" x2="288" y2="250" stroke="#e2e8f0" stroke-width="0.5" stroke-dasharray="3"/>
<line x1="322" y1="45" x2="322" y2="250" stroke="#e2e8f0" stroke-width="0.5" stroke-dasharray="3"/>
<line x1="356" y1="45" x2="356" y2="250" stroke="#e2e8f0" stroke-width="0.5" stroke-dasharray="3"/>
<line x1="390" y1="45" x2="390" y2="250" stroke="#e2e8f0" stroke-width="0.5" stroke-dasharray="3"/>
<line x1="424" y1="45" x2="424" y2="250" stroke="#e2e8f0" stroke-width="0.5" stroke-dasharray="3"/>
<line x1="458" y1="45" x2="458" y2="250" stroke="#e2e8f0" stroke-width="0.5" stroke-dasharray="3"/>
<line x1="492" y1="45" x2="492" y2="250" stroke="#e2e8f0" stroke-width="0.5" stroke-dasharray="3"/>
<line x1="526" y1="45" x2="526" y2="250" stroke="#e2e8f0" stroke-width="0.5" stroke-dasharray="3"/>
<line x1="560" y1="45" x2="560" y2="250" stroke="#e2e8f0" stroke-width="0.5" stroke-dasharray="3"/>
<!-- X labels -->
<text x="220" y="268" text-anchor="middle" font-size="10" fill="#888">0</text>
<text x="254" y="268" text-anchor="middle" font-size="10" fill="#888">1</text>
<text x="288" y="268" text-anchor="middle" font-size="10" fill="#888">2</text>
<text x="322" y="268" text-anchor="middle" font-size="10" fill="#888">3</text>
<text x="356" y="268" text-anchor="middle" font-size="10" fill="#888">4</text>
<text x="390" y="268" text-anchor="middle" font-size="10" fill="#888">5</text>
<text x="424" y="268" text-anchor="middle" font-size="10" fill="#888">6</text>
<text x="458" y="268" text-anchor="middle" font-size="10" fill="#888">7</text>
<text x="492" y="268" text-anchor="middle" font-size="10" fill="#888">8</text>
<text x="526" y="268" text-anchor="middle" font-size="10" fill="#888">9</text>
<text x="560" y="268" text-anchor="middle" font-size="10" fill="#888">10</text>
<!-- Motion Sickness -->
<text x="210" y="73" text-anchor="end" font-size="12" fill="#333">Motion Sickness</text>
<text x="210" y="86" text-anchor="end" font-size="9" fill="#999">(lower = better)</text>
<rect x="220" y="55" width="91.8" height="36" rx="5" fill="#10B981" opacity="0.85"/>
<text x="318" y="78" font-size="12" fill="#10B981" font-weight="bold">2.7</text>
<!-- Ease of Use -->
<text x="210" y="133" text-anchor="end" font-size="12" fill="#333">Ease of Use</text>
<rect x="220" y="110" width="238" height="36" rx="5" fill="#4ECDC4" opacity="0.85"/>
<text x="464" y="133" font-size="12" fill="#4ECDC4" font-weight="bold">7.0</text>
<!-- Presence -->
<text x="210" y="188" text-anchor="end" font-size="12" fill="#333">Presence</text>
<rect x="220" y="165" width="261.8" height="36" rx="5" fill="#2E5077" opacity="0.85"/>
<text x="488" y="188" font-size="12" fill="#2E5077" font-weight="bold">7.7</text>
<!-- Enjoyment -->
<text x="210" y="243" text-anchor="end" font-size="12" fill="#333">Enjoyment</text>
<rect x="220" y="220" width="272" height="36" rx="5" fill="#1E3A5F" opacity="0.85"/>
<text x="498" y="243" font-size="12" fill="#1E3A5F" font-weight="bold">8.0</text>
</svg>
