<?xml version="1.0" encoding="utf-8" standalone="no"?>
<!DOCTYPE svg PUBLIC "-//W3C//DTD SVG 1.1//EN"
  "http://www.w3.org/Graphics/SVG/1.1/DTD/svg11.dtd">
<svg xmlns:xlink="http://www.w3.org/1999/xlink" width="612pt" height="345.6pt" viewBox="0 0 612 345.6" xmlns="http://www.w3.org/2000/svg" version="1.1">
 <metadata>
  <rdf:RDF xmlns:dc="http://purl.org/dc/elements/1.1/" xmlns:cc="http://creativecommons.org/ns#" xmlns:rdf="http://www.w3.org/1999/02/22-rdf-syntax-ns#">
   <cc:Work>
    <dc:type rdf:resource="http://purl.org/dc/dcmitype/StillImage"/>
    <dc:date>2026-02-05T20:30:30.975721</dc:date>
    <dc:format>image/svg+xml</dc:format>
    <dc:creator>
     <cc:Agent>
      <dc:title>Matplotlib v3.5.1, https://matplotlib.org/</dc:title>
     </cc:Agent>
    </dc:creator>
   </cc:Work>
  </rdf:RDF>
 </metadata>
 <defs>
  <style type="text/css">*{stroke-linejoin: round; stroke-linecap: butt}</style>
 </defs>
 <g id="figure_1">
  <g id="patch_1">
   <path d="M 0 345.6 
L 612 345.6 
L 612 0 
L 0 0 
z
" style="fill: #ffffff"/>
  </g>
  <g id="axes_1">
   <g id="patch_2">
    <path d="M 44.8625 303.1 
L 593.26875 303.1 
L 593.26875 25.8 
L 44.8625 25.8 
z
" style="fill: #ffffff"/>
   </g>
   <g id="PolyCollection_1">
    <defs>
     <path id="m135df5b827" d="M 59.981469 -42.915607 
L 59.981469 -42.5 
L 61.355921 -42.5 
L 62.730373 -42.5 
L 64.104825 -42.5 
L 65.479276 -42.5 
L 66.853728 -42.5 
L 68.22818 -42.5 
L 69.602632 -42.5 
L 70.977083 -42.5 
L 72.351535 -42.5 
L 73.725987 -42.5 
L 75.100439 -42.5 
L 76.47489 -42.5 
L 77.849342 -42.5 
L 79.223794 -42.5 
L 80.598246 -42.5 
L 81.972697 -42.5 
L 83.347149 -42.5 
L 84.721601 -42.5 
L 86.096053 -42.5 
L 87.470504 -42.5 
L 88.844956 -42.5 
L 90.219408 -42.5 
L 91.59386 -42.5 
L 92.968311 -42.5 
L 94.342763 -42.5 
L 95.717215 -42.5 
L 97.091667 -42.5 
L 98.466118 -42.5 
L 99.84057 -42.5 
L 101.215022 -42.5 
L 102.589474 -42.5 
L 103.963925 -42.5 
L 105.338377 -42.5 
L 106.712829 -42.5 
L 108.087281 -42.5 
L 109.461732 -42.5 
L 110.836184 -42.5 
L 112.210636 -42.5 
L 113.585088 -42.5 
L 114.959539 -42.5 
L 116.333991 -42.5 
L 117.708443 -42.5 
L 119.082895 -42.5 
L 120.457346 -42.5 
L 121.831798 -42.5 
L 123.20625 -42.5 
L 124.580702 -42.5 
L 125.955154 -42.5 
L 127.329605 -42.5 
L 128.704057 -42.5 
L 130.078509 -42.5 
L 131.452961 -42.5 
L 132.827412 -42.5 
L 134.201864 -42.5 
L 135.576316 -42.5 
L 136.950768 -42.5 
L 138.325219 -42.5 
L 139.699671 -42.5 
L 141.074123 -42.5 
L 142.448575 -42.5 
L 143.823026 -42.5 
L 145.197478 -42.5 
L 146.57193 -42.5 
L 147.946382 -42.5 
L 149.320833 -42.5 
L 150.695285 -42.5 
L 152.069737 -42.5 
L 153.444189 -42.5 
L 154.81864 -42.5 
L 156.193092 -42.5 
L 157.567544 -42.5 
L 158.941996 -42.5 
L 160.316447 -42.5 
L 161.690899 -42.5 
L 163.065351 -42.5 
L 164.439803 -42.5 
L 165.814254 -42.5 
L 167.188706 -42.5 
L 168.563158 -42.5 
L 169.93761 -42.5 
L 171.312061 -42.5 
L 172.686513 -42.5 
L 174.060965 -42.5 
L 175.435417 -42.5 
L 176.809868 -42.5 
L 178.18432 -42.5 
L 179.558772 -42.5 
L 180.933224 -42.5 
L 182.307675 -42.5 
L 183.682127 -42.5 
L 185.056579 -42.5 
L 186.431031 -42.5 
L 187.805482 -42.5 
L 189.179934 -42.5 
L 190.554386 -42.5 
L 191.928838 -42.5 
L 193.303289 -42.5 
L 194.677741 -42.5 
L 196.052193 -42.5 
L 197.426645 -42.5 
L 198.801096 -42.5 
L 200.175548 -42.5 
L 201.55 -42.5 
L 202.924452 -42.5 
L 204.298904 -42.5 
L 205.673355 -42.5 
L 207.047807 -42.5 
L 208.422259 -42.5 
L 209.796711 -42.5 
L 211.171162 -42.5 
L 212.545614 -42.5 
L 213.920066 -42.5 
L 215.294518 -42.5 
L 216.668969 -42.5 
L 218.043421 -42.5 
L 219.417873 -42.5 
L 220.792325 -42.5 
L 222.166776 -42.5 
L 223.541228 -42.5 
L 224.91568 -42.5 
L 226.290132 -42.5 
L 227.664583 -42.5 
L 229.039035 -42.5 
L 230.413487 -42.5 
L 231.787939 -42.5 
L 233.16239 -42.5 
L 234.536842 -42.5 
L 235.911294 -42.5 
L 237.285746 -42.5 
L 238.660197 -42.5 
L 240.034649 -42.5 
L 241.409101 -42.5 
L 242.783553 -42.5 
L 244.158004 -42.5 
L 245.532456 -42.5 
L 246.906908 -42.5 
L 248.28136 -42.5 
L 249.655811 -42.5 
L 251.030263 -42.5 
L 252.404715 -42.5 
L 253.779167 -42.5 
L 255.153618 -42.5 
L 256.52807 -42.5 
L 257.902522 -42.5 
L 259.276974 -42.5 
L 260.651425 -42.5 
L 262.025877 -42.5 
L 263.400329 -42.5 
L 264.774781 -42.5 
L 266.149232 -42.5 
L 267.523684 -42.5 
L 268.898136 -42.5 
L 270.272588 -42.5 
L 271.647039 -42.5 
L 273.021491 -42.5 
L 274.395943 -42.5 
L 275.770395 -42.5 
L 277.144846 -42.5 
L 278.519298 -42.5 
L 279.89375 -42.5 
L 281.268202 -42.5 
L 282.642654 -42.5 
L 284.017105 -42.5 
L 285.391557 -42.5 
L 286.766009 -42.5 
L 288.140461 -42.5 
L 289.514912 -42.5 
L 290.889364 -42.5 
L 292.263816 -42.5 
L 293.638268 -42.5 
L 295.012719 -42.5 
L 296.387171 -42.5 
L 297.761623 -42.5 
L 299.136075 -42.5 
L 300.510526 -42.5 
L 301.884978 -42.5 
L 303.25943 -42.5 
L 304.633882 -42.5 
L 306.008333 -42.5 
L 307.382785 -42.5 
L 308.757237 -42.5 
L 310.131689 -42.5 
L 311.50614 -42.5 
L 312.880592 -42.5 
L 314.255044 -42.5 
L 315.629496 -42.5 
L 317.003947 -42.5 
L 318.378399 -42.5 
L 319.752851 -42.5 
L 321.127303 -42.5 
L 322.501754 -42.5 
L 323.876206 -42.5 
L 325.250658 -42.5 
L 326.62511 -42.5 
L 327.999561 -42.5 
L 329.374013 -42.5 
L 330.748465 -42.5 
L 332.122917 -42.5 
L 333.497368 -42.5 
L 334.87182 -42.5 
L 336.246272 -42.5 
L 337.620724 -42.5 
L 338.995175 -42.5 
L 340.369627 -42.5 
L 341.744079 -42.5 
L 343.118531 -42.5 
L 344.492982 -42.5 
L 345.867434 -42.5 
L 347.241886 -42.5 
L 348.616338 -42.5 
L 349.990789 -42.5 
L 351.365241 -42.5 
L 352.739693 -42.5 
L 354.114145 -42.5 
L 355.488596 -42.5 
L 356.863048 -42.5 
L 358.2375 -42.5 
L 359.611952 -42.5 
L 360.986404 -42.5 
L 362.360855 -42.5 
L 363.735307 -42.5 
L 365.109759 -42.5 
L 366.484211 -42.5 
L 367.858662 -42.5 
L 369.233114 -42.5 
L 370.607566 -42.5 
L 371.982018 -42.5 
L 373.356469 -42.5 
L 374.730921 -42.5 
L 376.105373 -42.5 
L 377.479825 -42.5 
L 378.854276 -42.5 
L 380.228728 -42.5 
L 381.60318 -42.5 
L 382.977632 -42.5 
L 384.352083 -42.5 
L 385.726535 -42.5 
L 387.100987 -42.5 
L 388.475439 -42.5 
L 389.84989 -42.5 
L 391.224342 -42.5 
L 392.598794 -42.5 
L 393.973246 -42.5 
L 395.347697 -42.5 
L 396.722149 -42.5 
L 398.096601 -42.5 
L 399.471053 -42.5 
L 400.845504 -42.5 
L 402.219956 -42.5 
L 403.594408 -42.5 
L 404.96886 -42.5 
L 406.343311 -42.5 
L 407.717763 -42.5 
L 409.092215 -42.5 
L 410.466667 -42.5 
L 411.841118 -42.5 
L 413.21557 -42.5 
L 414.590022 -42.5 
L 415.964474 -42.5 
L 417.338925 -42.5 
L 418.713377 -42.5 
L 420.087829 -42.5 
L 421.462281 -42.5 
L 422.836732 -42.5 
L 424.211184 -42.5 
L 425.585636 -42.5 
L 426.960088 -42.5 
L 428.334539 -42.5 
L 429.708991 -42.5 
L 431.083443 -42.5 
L 432.457895 -42.5 
L 433.832346 -42.5 
L 435.206798 -42.5 
L 436.58125 -42.5 
L 437.955702 -42.5 
L 439.330154 -42.5 
L 440.704605 -42.5 
L 442.079057 -42.5 
L 443.453509 -42.5 
L 444.827961 -42.5 
L 446.202412 -42.5 
L 447.576864 -42.5 
L 448.951316 -42.5 
L 450.325768 -42.5 
L 451.700219 -42.5 
L 453.074671 -42.5 
L 454.449123 -42.5 
L 455.823575 -42.5 
L 457.198026 -42.5 
L 458.572478 -42.5 
L 459.94693 -42.5 
L 461.321382 -42.5 
L 462.695833 -42.5 
L 464.070285 -42.5 
L 465.444737 -42.5 
L 466.819189 -42.5 
L 468.19364 -42.5 
L 469.568092 -42.5 
L 470.942544 -42.5 
L 472.316996 -42.5 
L 473.691447 -42.5 
L 475.065899 -42.5 
L 476.440351 -42.5 
L 477.814803 -42.5 
L 479.189254 -42.5 
L 480.563706 -42.5 
L 481.938158 -42.5 
L 483.31261 -42.5 
L 484.687061 -42.5 
L 486.061513 -42.5 
L 487.435965 -42.5 
L 488.810417 -42.5 
L 490.184868 -42.5 
L 491.55932 -42.5 
L 492.933772 -42.5 
L 494.308224 -42.5 
L 495.682675 -42.5 
L 497.057127 -42.5 
L 498.431579 -42.5 
L 499.806031 -42.5 
L 501.180482 -42.5 
L 502.554934 -42.5 
L 503.929386 -42.5 
L 505.303838 -42.5 
L 506.678289 -42.5 
L 508.052741 -42.5 
L 509.427193 -42.5 
L 510.801645 -42.5 
L 512.176096 -42.5 
L 513.550548 -42.5 
L 514.925 -42.5 
L 516.299452 -42.5 
L 517.673904 -42.5 
L 519.048355 -42.5 
L 520.422807 -42.5 
L 521.797259 -42.5 
L 523.171711 -42.5 
L 524.546162 -42.5 
L 525.920614 -42.5 
L 527.295066 -42.5 
L 528.669518 -42.5 
L 530.043969 -42.5 
L 531.418421 -42.5 
L 532.792873 -42.5 
L 534.167325 -42.5 
L 535.541776 -42.5 
L 536.916228 -42.5 
L 538.29068 -42.5 
L 539.665132 -42.5 
L 541.039583 -42.5 
L 542.414035 -42.5 
L 543.788487 -42.5 
L 545.162939 -42.5 
L 546.53739 -42.5 
L 547.911842 -42.5 
L 549.286294 -42.5 
L 550.660746 -42.5 
L 552.035197 -42.5 
L 553.409649 -42.5 
L 554.784101 -42.5 
L 556.158553 -42.5 
L 557.533004 -42.5 
L 558.907456 -42.5 
L 560.281908 -42.5 
L 561.65636 -42.5 
L 563.030811 -42.5 
L 564.405263 -42.5 
L 565.779715 -42.5 
L 567.154167 -42.5 
L 568.528618 -42.5 
L 569.90307 -42.5 
L 571.277522 -42.5 
L 572.651974 -42.5 
L 574.026425 -42.5 
L 575.400877 -42.5 
L 576.775329 -42.5 
L 578.149781 -42.5 
L 579.524232 -42.5 
L 580.898684 -42.5 
L 582.273136 -42.5 
L 583.647588 -42.5 
L 585.022039 -42.5 
L 586.396491 -42.5 
L 587.770943 -42.5 
L 589.145395 -42.5 
L 590.519846 -42.5 
L 591.894298 -42.5 
L 593.26875 -42.5 
L 593.26875 -306.595238 
L 593.26875 -306.595238 
L 591.894298 -306.595238 
L 590.519846 -306.595238 
L 589.145395 -306.595238 
L 587.770943 -306.595238 
L 586.396491 -306.595238 
L 585.022039 -306.595238 
L 583.647588 -306.595238 
L 582.273136 -306.595238 
L 580.898684 -306.595238 
L 579.524232 -306.595238 
L 578.149781 -306.595238 
L 576.775329 -306.595238 
L 575.400877 -306.595238 
L 574.026425 -306.595238 
L 572.651974 -306.595238 
L 571.277522 -306.595238 
L 569.90307 -306.595238 
L 568.528618 -306.595238 
L 567.154167 -306.595238 
L 565.779715 -306.595238 
L 564.405263 -306.595238 
L 563.030811 -306.595238 
L 561.65636 -306.595238 
L 560.281908 -306.595238 
L 558.907456 -306.595238 
L 557.533004 -306.595238 
L 556.158553 -306.595238 
L 554.784101 -306.595238 
L 553.409649 -306.595238 
L 552.035197 -306.595238 
L 550.660746 -306.595238 
L 549.286294 -306.595238 
L 547.911842 -306.595238 
L 546.53739 -306.595238 
L 545.162939 -306.595238 
L 543.788487 -306.595238 
L 542.414035 -306.595238 
L 541.039583 -306.595238 
L 539.665132 -306.595238 
L 538.29068 -306.595238 
L 536.916228 -306.595238 
L 535.541776 -306.595238 
L 534.167325 -306.595238 
L 532.792873 -306.595238 
L 531.418421 -306.595238 
L 530.043969 -306.595238 
L 528.669518 -306.595238 
L 527.295066 -306.595238 
L 525.920614 -306.595238 
L 524.546162 -306.595238 
L 523.171711 -306.595238 
L 521.797259 -306.595238 
L 520.422807 -306.595238 
L 519.048355 -306.595238 
L 517.673904 -306.595238 
L 516.299452 -306.595238 
L 514.925 -306.595238 
L 513.550548 -306.595238 
L 512.176096 -306.595238 
L 510.801645 -306.595238 
L 509.427193 -306.595238 
L 508.052741 -306.595238 
L 506.678289 -306.595238 
L 505.303838 -306.595238 
L 503.929386 -306.595238 
L 502.554934 -306.595238 
L 501.180482 -306.595238 
L 499.806031 -306.595238 
L 498.431579 -306.595238 
L 497.057127 -306.595238 
L 495.682675 -306.595238 
L 494.308224 -306.595238 
L 492.933772 -306.595238 
L 491.55932 -306.595238 
L 490.184868 -306.595238 
L 488.810417 -306.595238 
L 487.435965 -306.595238 
L 486.061513 -306.595238 
L 484.687061 -306.595238 
L 483.31261 -306.595238 
L 481.938158 -306.595238 
L 480.563706 -306.595238 
L 479.189254 -306.595238 
L 477.814803 -306.595238 
L 476.440351 -306.595238 
L 475.065899 -306.595238 
L 473.691447 -306.595238 
L 472.316996 -306.595238 
L 470.942544 -306.595238 
L 469.568092 -306.595238 
L 468.19364 -306.595238 
L 466.819189 -306.595238 
L 465.444737 -306.595238 
L 464.070285 -306.595238 
L 462.695833 -306.595238 
L 461.321382 -306.595238 
L 459.94693 -306.595238 
L 458.572478 -306.595238 
L 457.198026 -306.595238 
L 455.823575 -306.595238 
L 454.449123 -306.595238 
L 453.074671 -306.595238 
L 451.700219 -306.595238 
L 450.325768 -306.595238 
L 448.951316 -306.595238 
L 447.576864 -306.595238 
L 446.202412 -306.595238 
L 444.827961 -306.595238 
L 443.453509 -306.595238 
L 442.079057 -306.595238 
L 440.704605 -306.595238 
L 439.330154 -306.595238 
L 437.955702 -306.595238 
L 436.58125 -306.595238 
L 435.206798 -306.595238 
L 433.832346 -306.595238 
L 432.457895 -306.595238 
L 431.083443 -306.595238 
L 429.708991 -306.595238 
L 428.334539 -306.595238 
L 426.960088 -306.595238 
L 425.585636 -306.595238 
L 424.211184 -306.595238 
L 422.836732 -306.595238 
L 421.462281 -306.595238 
L 420.087829 -306.595238 
L 418.713377 -306.595238 
L 417.338925 -306.595238 
L 415.964474 -306.595238 
L 414.590022 -306.595238 
L 413.21557 -306.595238 
L 411.841118 -306.595238 
L 410.466667 -306.595238 
L 409.092215 -306.595238 
L 407.717763 -306.595238 
L 406.343311 -306.595238 
L 404.96886 -306.595238 
L 403.594408 -306.595238 
L 402.219956 -306.595238 
L 400.845504 -306.595238 
L 399.471053 -306.595238 
L 398.096601 -306.595238 
L 396.722149 -306.595238 
L 395.347697 -306.595238 
L 393.973246 -306.595238 
L 392.598794 -306.595238 
L 391.224342 -306.595238 
L 389.84989 -306.595238 
L 388.475439 -306.595238 
L 387.100987 -306.595238 
L 385.726535 -306.595238 
L 384.352083 -306.595238 
L 382.977632 -306.595238 
L 381.60318 -306.595238 
L 380.228728 -306.595238 
L 378.854276 -306.595238 
L 377.479825 -306.595238 
L 376.105373 -306.595238 
L 374.730921 -306.595238 
L 373.356469 -306.133452 
L 371.982018 -304.978988 
L 370.607566 -303.824524 
L 369.233114 -302.67006 
L 367.858662 -301.515595 
L 366.484211 -300.361131 
L 365.109759 -299.206667 
L 363.735307 -298.052203 
L 362.360855 -296.897739 
L 360.986404 -295.743274 
L 359.611952 -294.58881 
L 358.2375 -293.434346 
L 356.863048 -292.279882 
L 355.488596 -291.125417 
L 354.114145 -289.970953 
L 352.739693 -288.816489 
L 351.365241 -287.662025 
L 349.990789 -286.50756 
L 348.616338 -285.353096 
L 347.241886 -284.198632 
L 345.867434 -283.044168 
L 344.492982 -281.889703 
L 343.118531 -280.735239 
L 341.744079 -279.580775 
L 340.369627 -278.426311 
L 338.995175 -277.271847 
L 337.620724 -276.117382 
L 336.246272 -274.962918 
L 334.87182 -273.808454 
L 333.497368 -272.65399 
L 332.122917 -271.499525 
L 330.748465 -270.345061 
L 329.374013 -269.190597 
L 327.999561 -268.036133 
L 326.62511 -266.881668 
L 325.250658 -265.727204 
L 323.876206 -264.57274 
L 322.501754 -263.418276 
L 321.127303 -262.263812 
L 319.752851 -261.109347 
L 318.378399 -259.954883 
L 317.003947 -258.800419 
L 315.629496 -257.645955 
L 314.255044 -256.49149 
L 312.880592 -255.337026 
L 311.50614 -254.182562 
L 310.131689 -253.028098 
L 308.757237 -251.873633 
L 307.382785 -250.719169 
L 306.008333 -249.564705 
L 304.633882 -248.410241 
L 303.25943 -247.255776 
L 301.884978 -246.101312 
L 300.510526 -244.946848 
L 299.136075 -243.792384 
L 297.761623 -242.63792 
L 296.387171 -241.483455 
L 295.012719 -240.328991 
L 293.638268 -239.174527 
L 292.263816 -238.020063 
L 290.889364 -236.865598 
L 289.514912 -235.711134 
L 288.140461 -234.55667 
L 286.766009 -233.402206 
L 285.391557 -232.247741 
L 284.017105 -231.093277 
L 282.642654 -229.938813 
L 281.268202 -228.784349 
L 279.89375 -227.629885 
L 278.519298 -226.47542 
L 277.144846 -225.320956 
L 275.770395 -224.166492 
L 274.395943 -223.012028 
L 273.021491 -221.857563 
L 271.647039 -220.703099 
L 270.272588 -219.548635 
L 268.898136 -218.394171 
L 267.523684 -217.239706 
L 266.149232 -216.085242 
L 264.774781 -214.930778 
L 263.400329 -213.776314 
L 262.025877 -212.621849 
L 260.651425 -211.467385 
L 259.276974 -210.312921 
L 257.902522 -209.158457 
L 256.52807 -208.003993 
L 255.153618 -206.849528 
L 253.779167 -205.695064 
L 252.404715 -204.5406 
L 251.030263 -203.386136 
L 249.655811 -202.231671 
L 248.28136 -201.077207 
L 246.906908 -199.922743 
L 245.532456 -198.768279 
L 244.158004 -197.613814 
L 242.783553 -196.45935 
L 241.409101 -195.304886 
L 240.034649 -194.150422 
L 238.660197 -192.995958 
L 237.285746 -191.841493 
L 235.911294 -190.687029 
L 234.536842 -189.532565 
L 233.16239 -188.378101 
L 231.787939 -187.223636 
L 230.413487 -186.069172 
L 229.039035 -184.914708 
L 227.664583 -183.760244 
L 226.290132 -182.605779 
L 224.91568 -181.451315 
L 223.541228 -180.296851 
L 222.166776 -179.142387 
L 220.792325 -177.987922 
L 219.417873 -176.833458 
L 218.043421 -175.678994 
L 216.668969 -174.52453 
L 215.294518 -173.370066 
L 213.920066 -172.215601 
L 212.545614 -171.061137 
L 211.171162 -169.906673 
L 209.796711 -168.752209 
L 208.422259 -167.597744 
L 207.047807 -166.44328 
L 205.673355 -165.288816 
L 204.298904 -164.134352 
L 202.924452 -162.979887 
L 201.55 -161.825423 
L 200.175548 -160.670959 
L 198.801096 -159.516495 
L 197.426645 -158.36203 
L 196.052193 -157.207566 
L 194.677741 -156.053102 
L 193.303289 -154.898638 
L 191.928838 -153.744174 
L 190.554386 -152.589709 
L 189.179934 -151.435245 
L 187.805482 -150.280781 
L 186.431031 -149.126317 
L 185.056579 -147.971852 
L 183.682127 -146.817388 
L 182.307675 -145.662924 
L 180.933224 -144.50846 
L 179.558772 -143.353995 
L 178.18432 -142.199531 
L 176.809868 -141.045067 
L 175.435417 -139.890603 
L 174.060965 -138.736139 
L 172.686513 -137.581674 
L 171.312061 -136.42721 
L 169.93761 -135.272746 
L 168.563158 -134.118282 
L 167.188706 -132.963817 
L 165.814254 -131.809353 
L 164.439803 -130.654889 
L 163.065351 -129.500425 
L 161.690899 -128.34596 
L 160.316447 -127.191496 
L 158.941996 -126.037032 
L 157.567544 -124.882568 
L 156.193092 -123.728103 
L 154.81864 -122.573639 
L 153.444189 -121.419175 
L 152.069737 -120.264711 
L 150.695285 -119.110247 
L 149.320833 -117.955782 
L 147.946382 -116.801318 
L 146.57193 -115.646854 
L 145.197478 -114.49239 
L 143.823026 -113.337925 
L 142.448575 -112.183461 
L 141.074123 -111.028997 
L 139.699671 -109.874533 
L 138.325219 -108.720068 
L 136.950768 -107.565604 
L 135.576316 -106.41114 
L 134.201864 -105.256676 
L 132.827412 -104.102212 
L 131.452961 -102.947747 
L 130.078509 -101.793283 
L 128.704057 -100.638819 
L 127.329605 -99.484355 
L 125.955154 -98.32989 
L 124.580702 -97.175426 
L 123.20625 -96.020962 
L 121.831798 -94.866498 
L 120.457346 -93.712033 
L 119.082895 -92.557569 
L 117.708443 -91.403105 
L 116.333991 -90.248641 
L 114.959539 -89.094176 
L 113.585088 -87.939712 
L 112.210636 -86.785248 
L 110.836184 -85.630784 
L 109.461732 -84.47632 
L 108.087281 -83.321855 
L 106.712829 -82.167391 
L 105.338377 -81.012927 
L 103.963925 -79.858463 
L 102.589474 -78.703998 
L 101.215022 -77.549534 
L 99.84057 -76.39507 
L 98.466118 -75.240606 
L 97.091667 -74.086141 
L 95.717215 -72.931677 
L 94.342763 -71.777213 
L 92.968311 -70.622749 
L 91.59386 -69.468284 
L 90.219408 -68.31382 
L 88.844956 -67.159356 
L 87.470504 -66.004892 
L 86.096053 -64.850428 
L 84.721601 -63.695963 
L 83.347149 -62.541499 
L 81.972697 -61.387035 
L 80.598246 -60.232571 
L 79.223794 -59.078106 
L 77.849342 -57.923642 
L 76.47489 -56.769178 
L 75.100439 -55.614714 
L 73.725987 -54.460249 
L 72.351535 -53.305785 
L 70.977083 -52.151321 
L 69.602632 -50.996857 
L 68.22818 -49.842393 
L 66.853728 -48.687928 
L 65.479276 -47.533464 
L 64.104825 -46.379 
L 62.730373 -45.224536 
L 61.355921 -44.070071 
L 59.981469 -42.915607 
z
" style="stroke: #00b4d8; stroke-opacity: 0.15"/>
    </defs>
    <g clip-path="url(#p9454bdb4e1)">
     <use xlink:href="#m135df5b827" x="0" y="345.6" style="fill: #00b4d8; fill-opacity: 0.15; stroke: #00b4d8; stroke-opacity: 0.15"/>
    </g>
   </g>
   <g id="matplotlib.axis_1">
    <g id="xtick_1">
     <g id="line2d_1">
      <path d="M 44.8625 303.1 
L 44.8625 25.8 
" clip-path="url(#p9454bdb4e1)" style="fill: none; stroke: #b0b0b0; stroke-opacity: 0.3; stroke-width: 0.8; stroke-linecap: square"/>
     </g>
     <g id="line2d_2">
      <defs>
       <path id="m2946fa51d7" d="M 0 0 
L 0 3.5 
" style="stroke: #000000; stroke-width: 0.8"/>
      </defs>
      <g>
       <use xlink:href="#m2946fa51d7" x="44.8625" y="303.1" style="stroke: #000000; stroke-width: 0.8"/>
      </g>
     </g>
     <g id="text_1">
      <!-- 0.0 -->
      <g transform="translate(36.910937 317.698438)scale(0.1 -0.1)">
       <defs>
        <path id="DejaVuSans-30" d="M 2034 4250 
Q 1547 4250 1301 3770 
Q 1056 3291 1056 2328 
Q 1056 1369 1301 889 
Q 1547 409 2034 409 
Q 2525 409 2770 889 
Q 3016 1369 3016 2328 
Q 3016 3291 2770 3770 
Q 2525 4250 2034 4250 
z
M 2034 4750 
Q 2819 4750 3233 4129 
Q 3647 3509 3647 2328 
Q 3647 1150 3233 529 
Q 2819 -91 2034 -91 
Q 1250 -91 836 529 
Q 422 1150 422 2328 
Q 422 3509 836 4129 
Q 1250 4750 2034 4750 
z
" transform="scale(0.015625)"/>
        <path id="DejaVuSans-2e" d="M 684 794 
L 1344 794 
L 1344 0 
L 684 0 
L 684 794 
z
" transform="scale(0.015625)"/>
       </defs>
       <use xlink:href="#DejaVuSans-30"/>
       <use xlink:href="#DejaVuSans-2e" x="63.623047"/>
       <use xlink:href="#DejaVuSans-30" x="95.410156"/>
      </g>
     </g>
    </g>
    <g id="xtick_2">
     <g id="line2d_3">
      <path d="M 136.263542 303.1 
L 136.263542 25.8 
" clip-path="url(#p9454bdb4e1)" style="fill: none; stroke: #b0b0b0; stroke-opacity: 0.3; stroke-width: 0.8; stroke-linecap: square"/>
     </g>
     <g id="line2d_4">
      <g>
       <use xlink:href="#m2946fa51d7" x="136.263542" y="303.1" style="stroke: #000000; stroke-width: 0.8"/>
      </g>
     </g>
     <g id="text_2">
      <!-- 0.5 -->
      <g transform="translate(128.311979 317.698438)scale(0.1 -0.1)">
       <defs>
        <path id="DejaVuSans-35" d="M 691 4666 
L 3169 4666 
L 3169 4134 
L 1269 4134 
L 1269 2991 
Q 1406 3038 1543 3061 
Q 1681 3084 1819 3084 
Q 2600 3084 3056 2656 
Q 3513 2228 3513 1497 
Q 3513 744 3044 326 
Q 2575 -91 1722 -91 
Q 1428 -91 1123 -41 
Q 819 9 494 109 
L 494 744 
Q 775 591 1075 516 
Q 1375 441 1709 441 
Q 2250 441 2565 725 
Q 2881 1009 2881 1497 
Q 2881 1984 2565 2268 
Q 2250 2553 1709 2553 
Q 1456 2553 1204 2497 
Q 953 2441 691 2322 
L 691 4666 
z
" transform="scale(0.015625)"/>
       </defs>
       <use xlink:href="#DejaVuSans-30"/>
       <use xlink:href="#DejaVuSans-2e" x="63.623047"/>
       <use xlink:href="#DejaVuSans-35" x="95.410156"/>
      </g>
     </g>
    </g>
    <g id="xtick_3">
     <g id="line2d_5">
      <path d="M 227.664583 303.1 
L 227.664583 25.8 
" clip-path="url(#p9454bdb4e1)" style="fill: none; stroke: #b0b0b0; stroke-opacity: 0.3; stroke-width: 0.8; stroke-linecap: square"/>
     </g>
     <g id="line2d_6">
      <g>
       <use xlink:href="#m2946fa51d7" x="227.664583" y="303.1" style="stroke: #000000; stroke-width: 0.8"/>
      </g>
     </g>
     <g id="text_3">
      <!-- 1.0 -->
      <g transform="translate(219.713021 317.698438)scale(0.1 -0.1)">
       <defs>
        <path id="DejaVuSans-31" d="M 794 531 
L 1825 531 
L 1825 4091 
L 703 3866 
L 703 4441 
L 1819 4666 
L 2450 4666 
L 2450 531 
L 3481 531 
L 3481 0 
L 794 0 
L 794 531 
z
" transform="scale(0.015625)"/>
       </defs>
       <use xlink:href="#DejaVuSans-31"/>
       <use xlink:href="#DejaVuSans-2e" x="63.623047"/>
       <use xlink:href="#DejaVuSans-30" x="95.410156"/>
      </g>
     </g>
    </g>
    <g id="xtick_4">
     <g id="line2d_7">
      <path d="M 319.065625 303.1 
L 319.065625 25.8 
" clip-path="url(#p9454bdb4e1)" style="fill: none; stroke: #b0b0b0; stroke-opacity: 0.3; stroke-width: 0.8; stroke-linecap: square"/>
     </g>
     <g id="line2d_8">
      <g>
       <use xlink:href="#m2946fa51d7" x="319.065625" y="303.1" style="stroke: #000000; stroke-width: 0.8"/>
      </g>
     </g>
     <g id="text_4">
      <!-- 1.5 -->
      <g transform="translate(311.114062 317.698438)scale(0.1 -0.1)">
       <use xlink:href="#DejaVuSans-31"/>
       <use xlink:href="#DejaVuSans-2e" x="63.623047"/>
       <use xlink:href="#DejaVuSans-35" x="95.410156"/>
      </g>
     </g>
    </g>
    <g id="xtick_5">
     <g id="line2d_9">
      <path d="M 410.466667 303.1 
L 410.466667 25.8 
" clip-path="url(#p9454bdb4e1)" style="fill: none; stroke: #b0b0b0; stroke-opacity: 0.3; stroke-width: 0.8; stroke-linecap: square"/>
     </g>
     <g id="line2d_10">
      <g>
       <use xlink:href="#m2946fa51d7" x="410.466667" y="303.1" style="stroke: #000000; stroke-width: 0.8"/>
      </g>
     </g>
     <g id="text_5">
      <!-- 2.0 -->
      <g transform="translate(402.515104 317.698438)scale(0.1 -0.1)">
       <defs>
        <path id="DejaVuSans-32" d="M 1228 531 
L 3431 531 
L 3431 0 
L 469 0 
L 469 531 
Q 828 903 1448 1529 
Q 2069 2156 2228 2338 
Q 2531 2678 2651 2914 
Q 2772 3150 2772 3378 
Q 2772 3750 2511 3984 
Q 2250 4219 1831 4219 
Q 1534 4219 1204 4116 
Q 875 4013 500 3803 
L 500 4441 
Q 881 4594 1212 4672 
Q 1544 4750 1819 4750 
Q 2544 4750 2975 4387 
Q 3406 4025 3406 3419 
Q 3406 3131 3298 2873 
Q 3191 2616 2906 2266 
Q 2828 2175 2409 1742 
Q 1991 1309 1228 531 
z
" transform="scale(0.015625)"/>
       </defs>
       <use xlink:href="#DejaVuSans-32"/>
       <use xlink:href="#DejaVuSans-2e" x="63.623047"/>
       <use xlink:href="#DejaVuSans-30" x="95.410156"/>
      </g>
     </g>
    </g>
    <g id="xtick_6">
     <g id="line2d_11">
      <path d="M 501.867708 303.1 
L 501.867708 25.8 
" clip-path="url(#p9454bdb4e1)" style="fill: none; stroke: #b0b0b0; stroke-opacity: 0.3; stroke-width: 0.8; stroke-linecap: square"/>
     </g>
     <g id="line2d_12">
      <g>
       <use xlink:href="#m2946fa51d7" x="501.867708" y="303.1" style="stroke: #000000; stroke-width: 0.8"/>
      </g>
     </g>
     <g id="text_6">
      <!-- 2.5 -->
      <g transform="translate(493.916146 317.698438)scale(0.1 -0.1)">
       <use xlink:href="#DejaVuSans-32"/>
       <use xlink:href="#DejaVuSans-2e" x="63.623047"/>
       <use xlink:href="#DejaVuSans-35" x="95.410156"/>
      </g>
     </g>
    </g>
    <g id="xtick_7">
     <g id="line2d_13">
      <path d="M 593.26875 303.1 
L 593.26875 25.8 
" clip-path="url(#p9454bdb4e1)" style="fill: none; stroke: #b0b0b0; stroke-opacity: 0.3; stroke-width: 0.8; stroke-linecap: square"/>
     </g>
     <g id="line2d_14">
      <g>
       <use xlink:href="#m2946fa51d7" x="593.26875" y="303.1" style="stroke: #000000; stroke-width: 0.8"/>
      </g>
     </g>
     <g id="text_7">
      <!-- 3.0 -->
      <g transform="translate(585.317187 317.698438)scale(0.1 -0.1)">
       <defs>
        <path id="DejaVuSans-33" d="M 2597 2516 
Q 3050 2419 3304 2112 
Q 3559 1806 3559 1356 
Q 3559 666 3084 287 
Q 2609 -91 1734 -91 
Q 1441 -91 1130 -33 
Q 819 25 488 141 
L 488 750 
Q 750 597 1062 519 
Q 1375 441 1716 441 
Q 2309 441 2620 675 
Q 2931 909 2931 1356 
Q 2931 1769 2642 2001 
Q 2353 2234 1838 2234 
L 1294 2234 
L 1294 2753 
L 1863 2753 
Q 2328 2753 2575 2939 
Q 2822 3125 2822 3475 
Q 2822 3834 2567 4026 
Q 2313 4219 1838 4219 
Q 1578 4219 1281 4162 
Q 984 4106 628 3988 
L 628 4550 
Q 988 4650 1302 4700 
Q 1616 4750 1894 4750 
Q 2613 4750 3031 4423 
Q 3450 4097 3450 3541 
Q 3450 3153 3228 2886 
Q 3006 2619 2597 2516 
z
" transform="scale(0.015625)"/>
       </defs>
       <use xlink:href="#DejaVuSans-33"/>
       <use xlink:href="#DejaVuSans-2e" x="63.623047"/>
       <use xlink:href="#DejaVuSans-30" x="95.410156"/>
      </g>
     </g>
    </g>
    <g id="text_8">
     <!-- swingPower -->
     <g transform="translate(289.525781 331.376562)scale(0.1 -0.1)">
      <defs>
       <path id="DejaVuSans-73" d="M 2834 3397 
L 2834 2853 
Q 2591 2978 2328 3040 
Q 2066 3103 1784 3103 
Q 1356 3103 1142 2972 
Q 928 2841 928 2578 
Q 928 2378 1081 2264 
Q 1234 2150 1697 2047 
L 1894 2003 
Q 2506 1872 2764 1633 
Q 3022 1394 3022 966 
Q 3022 478 2636 193 
Q 2250 -91 1575 -91 
Q 1294 -91 989 -36 
Q 684 19 347 128 
L 347 722 
Q 666 556 975 473 
Q 1284 391 1588 391 
Q 1994 391 2212 530 
Q 2431 669 2431 922 
Q 2431 1156 2273 1281 
Q 2116 1406 1581 1522 
L 1381 1569 
Q 847 1681 609 1914 
Q 372 2147 372 2553 
Q 372 3047 722 3315 
Q 1072 3584 1716 3584 
Q 2034 3584 2315 3537 
Q 2597 3491 2834 3397 
z
" transform="scale(0.015625)"/>
       <path id="DejaVuSans-77" d="M 269 3500 
L 844 3500 
L 1563 769 
L 2278 3500 
L 2956 3500 
L 3675 769 
L 4391 3500 
L 4966 3500 
L 4050 0 
L 3372 0 
L 2619 2869 
L 1863 0 
L 1184 0 
L 269 3500 
z
" transform="scale(0.015625)"/>
       <path id="DejaVuSans-69" d="M 603 3500 
L 1178 3500 
L 1178 0 
L 603 0 
L 603 3500 
z
M 603 4863 
L 1178 4863 
L 1178 4134 
L 603 4134 
L 603 4863 
z
" transform="scale(0.015625)"/>
       <path id="DejaVuSans-6e" d="M 3513 2113 
L 3513 0 
L 2938 0 
L 2938 2094 
Q 2938 2591 2744 2837 
Q 2550 3084 2163 3084 
Q 1697 3084 1428 2787 
Q 1159 2491 1159 1978 
L 1159 0 
L 581 0 
L 581 3500 
L 1159 3500 
L 1159 2956 
Q 1366 3272 1645 3428 
Q 1925 3584 2291 3584 
Q 2894 3584 3203 3211 
Q 3513 2838 3513 2113 
z
" transform="scale(0.015625)"/>
       <path id="DejaVuSans-67" d="M 2906 1791 
Q 2906 2416 2648 2759 
Q 2391 3103 1925 3103 
Q 1463 3103 1205 2759 
Q 947 2416 947 1791 
Q 947 1169 1205 825 
Q 1463 481 1925 481 
Q 2391 481 2648 825 
Q 2906 1169 2906 1791 
z
M 3481 434 
Q 3481 -459 3084 -895 
Q 2688 -1331 1869 -1331 
Q 1566 -1331 1297 -1286 
Q 1028 -1241 775 -1147 
L 775 -588 
Q 1028 -725 1275 -790 
Q 1522 -856 1778 -856 
Q 2344 -856 2625 -561 
Q 2906 -266 2906 331 
L 2906 616 
Q 2728 306 2450 153 
Q 2172 0 1784 0 
Q 1141 0 747 490 
Q 353 981 353 1791 
Q 353 2603 747 3093 
Q 1141 3584 1784 3584 
Q 2172 3584 2450 3431 
Q 2728 3278 2906 2969 
L 2906 3500 
L 3481 3500 
L 3481 434 
z
" transform="scale(0.015625)"/>
       <path id="DejaVuSans-50" d="M 1259 4147 
L 1259 2394 
L 2053 2394 
Q 2494 2394 2734 2622 
Q 2975 2850 2975 3272 
Q 2975 3691 2734 3919 
Q 2494 4147 2053 4147 
L 1259 4147 
z
M 628 4666 
L 2053 4666 
Q 2838 4666 3239 4311 
Q 3641 3956 3641 3272 
Q 3641 2581 3239 2228 
Q 2838 1875 2053 1875 
L 1259 1875 
L 1259 0 
L 628 0 
L 628 4666 
z
" transform="scale(0.015625)"/>
       <path id="DejaVuSans-6f" d="M 1959 3097 
Q 1497 3097 1228 2736 
Q 959 2375 959 1747 
Q 959 1119 1226 758 
Q 1494 397 1959 397 
Q 2419 397 2687 759 
Q 2956 1122 2956 1747 
Q 2956 2369 2687 2733 
Q 2419 3097 1959 3097 
z
M 1959 3584 
Q 2709 3584 3137 3096 
Q 3566 2609 3566 1747 
Q 3566 888 3137 398 
Q 2709 -91 1959 -91 
Q 1206 -91 779 398 
Q 353 888 353 1747 
Q 353 2609 779 3096 
Q 1206 3584 1959 3584 
z
" transform="scale(0.015625)"/>
       <path id="DejaVuSans-65" d="M 3597 1894 
L 3597 1613 
L 953 1613 
Q 991 1019 1311 708 
Q 1631 397 2203 397 
Q 2534 397 2845 478 
Q 3156 559 3463 722 
L 3463 178 
Q 3153 47 2828 -22 
Q 2503 -91 2169 -91 
Q 1331 -91 842 396 
Q 353 884 353 1716 
Q 353 2575 817 3079 
Q 1281 3584 2069 3584 
Q 2775 3584 3186 3129 
Q 3597 2675 3597 1894 
z
M 3022 2063 
Q 3016 2534 2758 2815 
Q 2500 3097 2075 3097 
Q 1594 3097 1305 2825 
Q 1016 2553 972 2059 
L 3022 2063 
z
" transform="scale(0.015625)"/>
       <path id="DejaVuSans-72" d="M 2631 2963 
Q 2534 3019 2420 3045 
Q 2306 3072 2169 3072 
Q 1681 3072 1420 2755 
Q 1159 2438 1159 1844 
L 1159 0 
L 581 0 
L 581 3500 
L 1159 3500 
L 1159 2956 
Q 1341 3275 1631 3429 
Q 1922 3584 2338 3584 
Q 2397 3584 2469 3576 
Q 2541 3569 2628 3553 
L 2631 2963 
z
" transform="scale(0.015625)"/>
      </defs>
      <use xlink:href="#DejaVuSans-73"/>
      <use xlink:href="#DejaVuSans-77" x="52.099609"/>
      <use xlink:href="#DejaVuSans-69" x="133.886719"/>
      <use xlink:href="#DejaVuSans-6e" x="161.669922"/>
      <use xlink:href="#DejaVuSans-67" x="225.048828"/>
      <use xlink:href="#DejaVuSans-50" x="288.525391"/>
      <use xlink:href="#DejaVuSans-6f" x="345.203125"/>
      <use xlink:href="#DejaVuSans-77" x="406.384766"/>
      <use xlink:href="#DejaVuSans-65" x="488.171875"/>
      <use xlink:href="#DejaVuSans-72" x="549.695312"/>
     </g>
    </g>
   </g>
   <g id="matplotlib.axis_2">
    <g id="ytick_1">
     <g id="line2d_15">
      <path d="M 44.8625 303.1 
L 593.26875 303.1 
" clip-path="url(#p9454bdb4e1)" style="fill: none; stroke: #b0b0b0; stroke-opacity: 0.3; stroke-width: 0.8; stroke-linecap: square"/>
     </g>
     <g id="line2d_16">
      <defs>
       <path id="m05d61cf2f1" d="M 0 0 
L -3.5 0 
" style="stroke: #000000; stroke-width: 0.8"/>
      </defs>
      <g>
       <use xlink:href="#m05d61cf2f1" x="44.8625" y="303.1" style="stroke: #000000; stroke-width: 0.8"/>
      </g>
     </g>
     <g id="text_9">
      <!-- 0 -->
      <g transform="translate(31.5 306.899219)scale(0.1 -0.1)">
       <use xlink:href="#DejaVuSans-30"/>
      </g>
     </g>
    </g>
    <g id="ytick_2">
     <g id="line2d_17">
      <path d="M 44.8625 250.280952 
L 593.26875 250.280952 
" clip-path="url(#p9454bdb4e1)" style="fill: none; stroke: #b0b0b0; stroke-opacity: 0.3; stroke-width: 0.8; stroke-linecap: square"/>
     </g>
     <g id="line2d_18">
      <g>
       <use xlink:href="#m05d61cf2f1" x="44.8625" y="250.280952" style="stroke: #000000; stroke-width: 0.8"/>
      </g>
     </g>
     <g id="text_10">
      <!-- 2 -->
      <g transform="translate(31.5 254.080171)scale(0.1 -0.1)">
       <use xlink:href="#DejaVuSans-32"/>
      </g>
     </g>
    </g>
    <g id="ytick_3">
     <g id="line2d_19">
      <path d="M 44.8625 197.461905 
L 593.26875 197.461905 
" clip-path="url(#p9454bdb4e1)" style="fill: none; stroke: #b0b0b0; stroke-opacity: 0.3; stroke-width: 0.8; stroke-linecap: square"/>
     </g>
     <g id="line2d_20">
      <g>
       <use xlink:href="#m05d61cf2f1" x="44.8625" y="197.461905" style="stroke: #000000; stroke-width: 0.8"/>
      </g>
     </g>
     <g id="text_11">
      <!-- 4 -->
      <g transform="translate(31.5 201.261124)scale(0.1 -0.1)">
       <defs>
        <path id="DejaVuSans-34" d="M 2419 4116 
L 825 1625 
L 2419 1625 
L 2419 4116 
z
M 2253 4666 
L 3047 4666 
L 3047 1625 
L 3713 1625 
L 3713 1100 
L 3047 1100 
L 3047 0 
L 2419 0 
L 2419 1100 
L 313 1100 
L 313 1709 
L 2253 4666 
z
" transform="scale(0.015625)"/>
       </defs>
       <use xlink:href="#DejaVuSans-34"/>
      </g>
     </g>
    </g>
    <g id="ytick_4">
     <g id="line2d_21">
      <path d="M 44.8625 144.642857 
L 593.26875 144.642857 
" clip-path="url(#p9454bdb4e1)" style="fill: none; stroke: #b0b0b0; stroke-opacity: 0.3; stroke-width: 0.8; stroke-linecap: square"/>
     </g>
     <g id="line2d_22">
      <g>
       <use xlink:href="#m05d61cf2f1" x="44.8625" y="144.642857" style="stroke: #000000; stroke-width: 0.8"/>
      </g>
     </g>
     <g id="text_12">
      <!-- 6 -->
      <g transform="translate(31.5 148.442076)scale(0.1 -0.1)">
       <defs>
        <path id="DejaVuSans-36" d="M 2113 2584 
Q 1688 2584 1439 2293 
Q 1191 2003 1191 1497 
Q 1191 994 1439 701 
Q 1688 409 2113 409 
Q 2538 409 2786 701 
Q 3034 994 3034 1497 
Q 3034 2003 2786 2293 
Q 2538 2584 2113 2584 
z
M 3366 4563 
L 3366 3988 
Q 3128 4100 2886 4159 
Q 2644 4219 2406 4219 
Q 1781 4219 1451 3797 
Q 1122 3375 1075 2522 
Q 1259 2794 1537 2939 
Q 1816 3084 2150 3084 
Q 2853 3084 3261 2657 
Q 3669 2231 3669 1497 
Q 3669 778 3244 343 
Q 2819 -91 2113 -91 
Q 1303 -91 875 529 
Q 447 1150 447 2328 
Q 447 3434 972 4092 
Q 1497 4750 2381 4750 
Q 2619 4750 2861 4703 
Q 3103 4656 3366 4563 
z
" transform="scale(0.015625)"/>
       </defs>
       <use xlink:href="#DejaVuSans-36"/>
      </g>
     </g>
    </g>
    <g id="ytick_5">
     <g id="line2d_23">
      <path d="M 44.8625 91.82381 
L 593.26875 91.82381 
" clip-path="url(#p9454bdb4e1)" style="fill: none; stroke: #b0b0b0; stroke-opacity: 0.3; stroke-width: 0.8; stroke-linecap: square"/>
     </g>
     <g id="line2d_24">
      <g>
       <use xlink:href="#m05d61cf2f1" x="44.8625" y="91.82381" style="stroke: #000000; stroke-width: 0.8"/>
      </g>
     </g>
     <g id="text_13">
      <!-- 8 -->
      <g transform="translate(31.5 95.623028)scale(0.1 -0.1)">
       <defs>
        <path id="DejaVuSans-38" d="M 2034 2216 
Q 1584 2216 1326 1975 
Q 1069 1734 1069 1313 
Q 1069 891 1326 650 
Q 1584 409 2034 409 
Q 2484 409 2743 651 
Q 3003 894 3003 1313 
Q 3003 1734 2745 1975 
Q 2488 2216 2034 2216 
z
M 1403 2484 
Q 997 2584 770 2862 
Q 544 3141 544 3541 
Q 544 4100 942 4425 
Q 1341 4750 2034 4750 
Q 2731 4750 3128 4425 
Q 3525 4100 3525 3541 
Q 3525 3141 3298 2862 
Q 3072 2584 2669 2484 
Q 3125 2378 3379 2068 
Q 3634 1759 3634 1313 
Q 3634 634 3220 271 
Q 2806 -91 2034 -91 
Q 1263 -91 848 271 
Q 434 634 434 1313 
Q 434 1759 690 2068 
Q 947 2378 1403 2484 
z
M 1172 3481 
Q 1172 3119 1398 2916 
Q 1625 2713 2034 2713 
Q 2441 2713 2670 2916 
Q 2900 3119 2900 3481 
Q 2900 3844 2670 4047 
Q 2441 4250 2034 4250 
Q 1625 4250 1398 4047 
Q 1172 3844 1172 3481 
z
" transform="scale(0.015625)"/>
       </defs>
       <use xlink:href="#DejaVuSans-38"/>
      </g>
     </g>
    </g>
    <g id="ytick_6">
     <g id="line2d_25">
      <path d="M 44.8625 39.004762 
L 593.26875 39.004762 
" clip-path="url(#p9454bdb4e1)" style="fill: none; stroke: #b0b0b0; stroke-opacity: 0.3; stroke-width: 0.8; stroke-linecap: square"/>
     </g>
     <g id="line2d_26">
      <g>
       <use xlink:href="#m05d61cf2f1" x="44.8625" y="39.004762" style="stroke: #000000; stroke-width: 0.8"/>
      </g>
     </g>
     <g id="text_14">
      <!-- 10 -->
      <g transform="translate(25.1375 42.803981)scale(0.1 -0.1)">
       <use xlink:href="#DejaVuSans-31"/>
       <use xlink:href="#DejaVuSans-30" x="63.623047"/>
      </g>
     </g>
    </g>
    <g id="text_15">
     <!-- target speed (m/s) -->
     <g transform="translate(19.057812 210.998437)rotate(-90)scale(0.1 -0.1)">
      <defs>
       <path id="DejaVuSans-74" d="M 1172 4494 
L 1172 3500 
L 2356 3500 
L 2356 3053 
L 1172 3053 
L 1172 1153 
Q 1172 725 1289 603 
Q 1406 481 1766 481 
L 2356 481 
L 2356 0 
L 1766 0 
Q 1100 0 847 248 
Q 594 497 594 1153 
L 594 3053 
L 172 3053 
L 172 3500 
L 594 3500 
L 594 4494 
L 1172 4494 
z
" transform="scale(0.015625)"/>
       <path id="DejaVuSans-61" d="M 2194 1759 
Q 1497 1759 1228 1600 
Q 959 1441 959 1056 
Q 959 750 1161 570 
Q 1363 391 1709 391 
Q 2188 391 2477 730 
Q 2766 1069 2766 1631 
L 2766 1759 
L 2194 1759 
z
M 3341 1997 
L 3341 0 
L 2766 0 
L 2766 531 
Q 2569 213 2275 61 
Q 1981 -91 1556 -91 
Q 1019 -91 701 211 
Q 384 513 384 1019 
Q 384 1609 779 1909 
Q 1175 2209 1959 2209 
L 2766 2209 
L 2766 2266 
Q 2766 2663 2505 2880 
Q 2244 3097 1772 3097 
Q 1472 3097 1187 3025 
Q 903 2953 641 2809 
L 641 3341 
Q 956 3463 1253 3523 
Q 1550 3584 1831 3584 
Q 2591 3584 2966 3190 
Q 3341 2797 3341 1997 
z
" transform="scale(0.015625)"/>
       <path id="DejaVuSans-20" transform="scale(0.015625)"/>
       <path id="DejaVuSans-70" d="M 1159 525 
L 1159 -1331 
L 581 -1331 
L 581 3500 
L 1159 3500 
L 1159 2969 
Q 1341 3281 1617 3432 
Q 1894 3584 2278 3584 
Q 2916 3584 3314 3078 
Q 3713 2572 3713 1747 
Q 3713 922 3314 415 
Q 2916 -91 2278 -91 
Q 1894 -91 1617 61 
Q 1341 213 1159 525 
z
M 3116 1747 
Q 3116 2381 2855 2742 
Q 2594 3103 2138 3103 
Q 1681 3103 1420 2742 
Q 1159 2381 1159 1747 
Q 1159 1113 1420 752 
Q 1681 391 2138 391 
Q 2594 391 2855 752 
Q 3116 1113 3116 1747 
z
" transform="scale(0.015625)"/>
       <path id="DejaVuSans-64" d="M 2906 2969 
L 2906 4863 
L 3481 4863 
L 3481 0 
L 2906 0 
L 2906 525 
Q 2725 213 2448 61 
Q 2172 -91 1784 -91 
Q 1150 -91 751 415 
Q 353 922 353 1747 
Q 353 2572 751 3078 
Q 1150 3584 1784 3584 
Q 2172 3584 2448 3432 
Q 2725 3281 2906 2969 
z
M 947 1747 
Q 947 1113 1208 752 
Q 1469 391 1925 391 
Q 2381 391 2643 752 
Q 2906 1113 2906 1747 
Q 2906 2381 2643 2742 
Q 2381 3103 1925 3103 
Q 1469 3103 1208 2742 
Q 947 2381 947 1747 
z
" transform="scale(0.015625)"/>
       <path id="DejaVuSans-28" d="M 1984 4856 
Q 1566 4138 1362 3434 
Q 1159 2731 1159 2009 
Q 1159 1288 1364 580 
Q 1569 -128 1984 -844 
L 1484 -844 
Q 1016 -109 783 600 
Q 550 1309 550 2009 
Q 550 2706 781 3412 
Q 1013 4119 1484 4856 
L 1984 4856 
z
" transform="scale(0.015625)"/>
       <path id="DejaVuSans-6d" d="M 3328 2828 
Q 3544 3216 3844 3400 
Q 4144 3584 4550 3584 
Q 5097 3584 5394 3201 
Q 5691 2819 5691 2113 
L 5691 0 
L 5113 0 
L 5113 2094 
Q 5113 2597 4934 2840 
Q 4756 3084 4391 3084 
Q 3944 3084 3684 2787 
Q 3425 2491 3425 1978 
L 3425 0 
L 2847 0 
L 2847 2094 
Q 2847 2600 2669 2842 
Q 2491 3084 2119 3084 
Q 1678 3084 1418 2786 
Q 1159 2488 1159 1978 
L 1159 0 
L 581 0 
L 581 3500 
L 1159 3500 
L 1159 2956 
Q 1356 3278 1631 3431 
Q 1906 3584 2284 3584 
Q 2666 3584 2933 3390 
Q 3200 3197 3328 2828 
z
" transform="scale(0.015625)"/>
       <path id="DejaVuSans-2f" d="M 1625 4666 
L 2156 4666 
L 531 -594 
L 0 -594 
L 1625 4666 
z
" transform="scale(0.015625)"/>
       <path id="DejaVuSans-29" d="M 513 4856 
L 1013 4856 
Q 1481 4119 1714 3412 
Q 1947 2706 1947 2009 
Q 1947 1309 1714 600 
Q 1481 -109 1013 -844 
L 513 -844 
Q 928 -128 1133 580 
Q 1338 1288 1338 2009 
Q 1338 2731 1133 3434 
Q 928 4138 513 4856 
z
" transform="scale(0.015625)"/>
      </defs>
      <use xlink:href="#DejaVuSans-74"/>
      <use xlink:href="#DejaVuSans-61" x="39.208984"/>
      <use xlink:href="#DejaVuSans-72" x="100.488281"/>
      <use xlink:href="#DejaVuSans-67" x="139.851562"/>
      <use xlink:href="#DejaVuSans-65" x="203.328125"/>
      <use xlink:href="#DejaVuSans-74" x="264.851562"/>
      <use xlink:href="#DejaVuSans-20" x="304.060547"/>
      <use xlink:href="#DejaVuSans-73" x="335.847656"/>
      <use xlink:href="#DejaVuSans-70" x="387.947266"/>
      <use xlink:href="#DejaVuSans-65" x="451.423828"/>
      <use xlink:href="#DejaVuSans-65" x="512.947266"/>
      <use xlink:href="#DejaVuSans-64" x="574.470703"/>
      <use xlink:href="#DejaVuSans-20" x="637.947266"/>
      <use xlink:href="#DejaVuSans-28" x="669.734375"/>
      <use xlink:href="#DejaVuSans-6d" x="708.748047"/>
      <use xlink:href="#DejaVuSans-2f" x="806.160156"/>
      <use xlink:href="#DejaVuSans-73" x="839.851562"/>
      <use xlink:href="#DejaVuSans-29" x="891.951172"/>
     </g>
    </g>
   </g>
   <g id="line2d_27">
    <path d="M 44.8625 303.1 
L 58.607018 303.1 
L 59.981469 302.684393 
L 373.356469 39.466548 
L 374.730921 39.004762 
L 593.26875 39.004762 
L 593.26875 39.004762 
" clip-path="url(#p9454bdb4e1)" style="fill: none; stroke: #0077b6; stroke-width: 2.5; stroke-linecap: square"/>
   </g>
   <g id="line2d_28">
    <path d="M 59.486667 303.1 
L 59.486667 25.8 
" clip-path="url(#p9454bdb4e1)" style="fill: none; stroke-dasharray: 4.07,1.76; stroke-dashoffset: 0; stroke: #6c757d; stroke-width: 1.1"/>
   </g>
   <g id="line2d_29">
    <path d="M 373.90625 303.1 
L 373.90625 25.8 
" clip-path="url(#p9454bdb4e1)" style="fill: none; stroke-dasharray: 4.07,1.76; stroke-dashoffset: 0; stroke: #6c757d; stroke-width: 1.1"/>
   </g>
   <g id="patch_3">
    <path d="M 44.8625 303.1 
L 44.8625 25.8 
" style="fill: none; stroke: #000000; stroke-width: 0.8; stroke-linejoin: miter; stroke-linecap: square"/>
   </g>
   <g id="patch_4">
    <path d="M 593.26875 303.1 
L 593.26875 25.8 
" style="fill: none; stroke: #000000; stroke-width: 0.8; stroke-linejoin: miter; stroke-linecap: square"/>
   </g>
   <g id="patch_5">
    <path d="M 44.8625 303.1 
L 593.26875 303.1 
" style="fill: none; stroke: #000000; stroke-width: 0.8; stroke-linejoin: miter; stroke-linecap: square"/>
   </g>
   <g id="patch_6">
    <path d="M 44.8625 25.8 
L 593.26875 25.8 
" style="fill: none; stroke: #000000; stroke-width: 0.8; stroke-linejoin: miter; stroke-linecap: square"/>
   </g>
   <g id="text_16">
    <!-- dead zone -->
    <g style="fill: #495057" transform="translate(63.142708 291.215714)scale(0.1 -0.1)">
     <defs>
      <path id="DejaVuSans-7a" d="M 353 3500 
L 3084 3500 
L 3084 2975 
L 922 459 
L 3084 459 
L 3084 0 
L 275 0 
L 275 525 
L 2438 3041 
L 353 3041 
L 353 3500 
z
" transform="scale(0.015625)"/>
     </defs>
     <use xlink:href="#DejaVuSans-64"/>
     <use xlink:href="#DejaVuSans-65" x="63.476562"/>
     <use xlink:href="#DejaVuSans-61" x="125"/>
     <use xlink:href="#DejaVuSans-64" x="186.279297"/>
     <use xlink:href="#DejaVuSans-20" x="249.755859"/>
     <use xlink:href="#DejaVuSans-7a" x="281.542969"/>
     <use xlink:href="#DejaVuSans-6f" x="334.033203"/>
     <use xlink:href="#DejaVuSans-6e" x="395.214844"/>
     <use xlink:href="#DejaVuSans-65" x="458.59375"/>
    </g>
   </g>
   <g id="text_17">
    <!-- full speed -->
    <g style="fill: #495057" transform="translate(379.390312 68.055238)scale(0.1 -0.1)">
     <defs>
      <path id="DejaVuSans-66" d="M 2375 4863 
L 2375 4384 
L 1825 4384 
Q 1516 4384 1395 4259 
Q 1275 4134 1275 3809 
L 1275 3500 
L 2222 3500 
L 2222 3053 
L 1275 3053 
L 1275 0 
L 697 0 
L 697 3053 
L 147 3053 
L 147 3500 
L 697 3500 
L 697 3744 
Q 697 4328 969 4595 
Q 1241 4863 1831 4863 
L 2375 4863 
z
" transform="scale(0.015625)"/>
      <path id="DejaVuSans-75" d="M 544 1381 
L 544 3500 
L 1119 3500 
L 1119 1403 
Q 1119 906 1312 657 
Q 1506 409 1894 409 
Q 2359 409 2629 706 
Q 2900 1003 2900 1516 
L 2900 3500 
L 3475 3500 
L 3475 0 
L 2900 0 
L 2900 538 
Q 2691 219 2414 64 
Q 2138 -91 1772 -91 
Q 1169 -91 856 284 
Q 544 659 544 1381 
z
M 1991 3584 
L 1991 3584 
z
" transform="scale(0.015625)"/>
      <path id="DejaVuSans-6c" d="M 603 4863 
L 1178 4863 
L 1178 0 
L 603 0 
L 603 4863 
z
" transform="scale(0.015625)"/>
     </defs>
     <use xlink:href="#DejaVuSans-66"/>
     <use xlink:href="#DejaVuSans-75" x="35.205078"/>
     <use xlink:href="#DejaVuSans-6c" x="98.583984"/>
     <use xlink:href="#DejaVuSans-6c" x="126.367188"/>
     <use xlink:href="#DejaVuSans-20" x="154.150391"/>
     <use xlink:href="#DejaVuSans-73" x="185.9375"/>
     <use xlink:href="#DejaVuSans-70" x="238.037109"/>
     <use xlink:href="#DejaVuSans-65" x="301.513672"/>
     <use xlink:href="#DejaVuSans-65" x="363.037109"/>
     <use xlink:href="#DejaVuSans-64" x="424.560547"/>
    </g>
   </g>
   <g id="text_18">
    <!-- Power -&gt; Speed Mapping (default params) -->
    <g transform="translate(191.247813 19.8)scale(0.12 -0.12)">
     <defs>
      <path id="DejaVuSans-2d" d="M 313 2009 
L 1997 2009 
L 1997 1497 
L 313 1497 
L 313 2009 
z
" transform="scale(0.015625)"/>
      <path id="DejaVuSans-3e" d="M 678 3150 
L 678 3719 
L 4684 2266 
L 4684 1747 
L 678 294 
L 678 863 
L 3897 2003 
L 678 3150 
z
" transform="scale(0.015625)"/>
      <path id="DejaVuSans-53" d="M 3425 4513 
L 3425 3897 
Q 3066 4069 2747 4153 
Q 2428 4238 2131 4238 
Q 1616 4238 1336 4038 
Q 1056 3838 1056 3469 
Q 1056 3159 1242 3001 
Q 1428 2844 1947 2747 
L 2328 2669 
Q 3034 2534 3370 2195 
Q 3706 1856 3706 1288 
Q 3706 609 3251 259 
Q 2797 -91 1919 -91 
Q 1588 -91 1214 -16 
Q 841 59 441 206 
L 441 856 
Q 825 641 1194 531 
Q 1563 422 1919 422 
Q 2459 422 2753 634 
Q 3047 847 3047 1241 
Q 3047 1584 2836 1778 
Q 2625 1972 2144 2069 
L 1759 2144 
Q 1053 2284 737 2584 
Q 422 2884 422 3419 
Q 422 4038 858 4394 
Q 1294 4750 2059 4750 
Q 2388 4750 2728 4690 
Q 3069 4631 3425 4513 
z
" transform="scale(0.015625)"/>
      <path id="DejaVuSans-4d" d="M 628 4666 
L 1569 4666 
L 2759 1491 
L 3956 4666 
L 4897 4666 
L 4897 0 
L 4281 0 
L 4281 4097 
L 3078 897 
L 2444 897 
L 1241 4097 
L 1241 0 
L 628 0 
L 628 4666 
z
" transform="scale(0.015625)"/>
     </defs>
     <use xlink:href="#DejaVuSans-50"/>
     <use xlink:href="#DejaVuSans-6f" x="56.677734"/>
     <use xlink:href="#DejaVuSans-77" x="117.859375"/>
     <use xlink:href="#DejaVuSans-65" x="199.646484"/>
     <use xlink:href="#DejaVuSans-72" x="261.169922"/>
     <use xlink:href="#DejaVuSans-20" x="302.283203"/>
     <use xlink:href="#DejaVuSans-2d" x="334.070312"/>
     <use xlink:href="#DejaVuSans-3e" x="370.154297"/>
     <use xlink:href="#DejaVuSans-20" x="453.943359"/>
     <use xlink:href="#DejaVuSans-53" x="485.730469"/>
     <use xlink:href="#DejaVuSans-70" x="549.207031"/>
     <use xlink:href="#DejaVuSans-65" x="612.683594"/>
     <use xlink:href="#DejaVuSans-65" x="674.207031"/>
     <use xlink:href="#DejaVuSans-64" x="735.730469"/>
     <use xlink:href="#DejaVuSans-20" x="799.207031"/>
     <use xlink:href="#DejaVuSans-4d" x="830.994141"/>
     <use xlink:href="#DejaVuSans-61" x="917.273438"/>
     <use xlink:href="#DejaVuSans-70" x="978.552734"/>
     <use xlink:href="#DejaVuSans-70" x="1042.029297"/>
     <use xlink:href="#DejaVuSans-69" x="1105.505859"/>
     <use xlink:href="#DejaVuSans-6e" x="1133.289062"/>
     <use xlink:href="#DejaVuSans-67" x="1196.667969"/>
     <use xlink:href="#DejaVuSans-20" x="1260.144531"/>
     <use xlink:href="#DejaVuSans-28" x="1291.931641"/>
     <use xlink:href="#DejaVuSans-64" x="1330.945312"/>
     <use xlink:href="#DejaVuSans-65" x="1394.421875"/>
     <use xlink:href="#DejaVuSans-66" x="1455.945312"/>
     <use xlink:href="#DejaVuSans-61" x="1491.150391"/>
     <use xlink:href="#DejaVuSans-75" x="1552.429688"/>
     <use xlink:href="#DejaVuSans-6c" x="1615.808594"/>
     <use xlink:href="#DejaVuSans-74" x="1643.591797"/>
     <use xlink:href="#DejaVuSans-20" x="1682.800781"/>
     <use xlink:href="#DejaVuSans-70" x="1714.587891"/>
     <use xlink:href="#DejaVuSans-61" x="1778.064453"/>
     <use xlink:href="#DejaVuSans-72" x="1839.34375"/>
     <use xlink:href="#DejaVuSans-61" x="1880.457031"/>
     <use xlink:href="#DejaVuSans-6d" x="1941.736328"/>
     <use xlink:href="#DejaVuSans-73" x="2039.148438"/>
     <use xlink:href="#DejaVuSans-29" x="2091.248047"/>
    </g>
   </g>
  </g>
 </g>
 <defs>
  <clipPath id="p9454bdb4e1">
   <rect x="44.8625" y="25.8" width="548.40625" height="277.3"/>
  </clipPath>
 </defs>
</svg>
