<?xml version="1.0" encoding="utf-8" standalone="no"?>
<!DOCTYPE svg PUBLIC "-//W3C//DTD SVG 1.1//EN"
  "http://www.w3.org/Graphics/SVG/1.1/DTD/svg11.dtd">
<svg xmlns:xlink="http://www.w3.org/1999/xlink" width="720pt" height="309.6pt" viewBox="0 0 720 309.6" xmlns="http://www.w3.org/2000/svg" version="1.1">
 <metadata>
  <rdf:RDF xmlns:dc="http://purl.org/dc/elements/1.1/" xmlns:cc="http://creativecommons.org/ns#" xmlns:rdf="http://www.w3.org/1999/02/22-rdf-syntax-ns#">
   <cc:Work>
    <dc:type rdf:resource="http://purl.org/dc/dcmitype/StillImage"/>
    <dc:date>2026-02-05T20:30:31.224084</dc:date>
    <dc:format>image/svg+xml</dc:format>
    <dc:creator>
     <cc:Agent>
      <dc:title>Matplotlib v3.5.1, https://matplotlib.org/</dc:title>
     </cc:Agent>
    </dc:creator>
   </cc:Work>
  </rdf:RDF>
 </metadata>
 <defs>
  <style type="text/css">*{stroke-linejoin: round; stroke-linecap: butt}</style>
 </defs>
 <g id="figure_1">
  <g id="patch_1">
   <path d="M 0 309.6 
L 720 309.6 
L 720 0 
L 0 0 
z
" style="fill: #ffffff"/>
  </g>
  <g id="axes_1">
   <g id="patch_2">
    <path d="M 101.592 205.032558 
C 115.483338 205.032558 128.807594 199.739739 138.630253 190.319782 
C 148.452913 180.899826 153.972 168.12183 153.972 154.8 
C 153.972 141.47817 148.452913 128.700174 138.630253 119.280218 
C 128.807594 109.860261 115.483338 104.567442 101.592 104.567442 
C 87.700662 104.567442 74.376406 109.860261 64.553747 119.280218 
C 54.731087 128.700174 49.212 141.47817 49.212 154.8 
C 49.212 168.12183 54.731087 180.899826 64.553747 190.319782 
C 74.376406 199.739739 87.700662 205.032558 101.592 205.032558 
z
" clip-path="url(#p5e4f8cc472)" style="fill: #f8f9fa; stroke: #1d3557; stroke-width: 1.4; stroke-linejoin: miter"/>
   </g>
   <g id="patch_3">
    <path d="M 290.16 205.032558 
C 304.051338 205.032558 317.375594 199.739739 327.198253 190.319782 
C 337.020913 180.899826 342.54 168.12183 342.54 154.8 
C 342.54 141.47817 337.020913 128.700174 327.198253 119.280218 
C 317.375594 109.860261 304.051338 104.567442 290.16 104.567442 
C 276.268662 104.567442 262.944406 109.860261 253.121747 119.280218 
C 243.299087 128.700174 237.78 141.47817 237.78 154.8 
C 237.78 168.12183 243.299087 180.899826 253.121747 190.319782 
C 262.944406 199.739739 276.268662 205.032558 290.16 205.032558 
z
" clip-path="url(#p5e4f8cc472)" style="fill: #f8f9fa; stroke: #1d3557; stroke-width: 1.4; stroke-linejoin: miter"/>
   </g>
   <g id="patch_4">
    <path d="M 485.712 205.032558 
C 499.603338 205.032558 512.927594 199.739739 522.750253 190.319782 
C 532.572913 180.899826 538.092 168.12183 538.092 154.8 
C 538.092 141.47817 532.572913 128.700174 522.750253 119.280218 
C 512.927594 109.860261 499.603338 104.567442 485.712 104.567442 
C 471.820662 104.567442 458.496406 109.860261 448.673747 119.280218 
C 438.851087 128.700174 433.332 141.47817 433.332 154.8 
C 433.332 168.12183 438.851087 180.899826 448.673747 190.319782 
C 458.496406 199.739739 471.820662 205.032558 485.712 205.032558 
z
" clip-path="url(#p5e4f8cc472)" style="fill: #f8f9fa; stroke: #1d3557; stroke-width: 1.4; stroke-linejoin: miter"/>
   </g>
   <g id="patch_5">
    <path d="M 625.392 205.032558 
C 639.283338 205.032558 652.607594 199.739739 662.430253 190.319782 
C 672.252913 180.899826 677.772 168.12183 677.772 154.8 
C 677.772 141.47817 672.252913 128.700174 662.430253 119.280218 
C 652.607594 109.860261 639.283338 104.567442 625.392 104.567442 
C 611.500662 104.567442 598.176406 109.860261 588.353747 119.280218 
C 578.531087 128.700174 573.012 141.47817 573.012 154.8 
C 573.012 168.12183 578.531087 180.899826 588.353747 190.319782 
C 598.176406 199.739739 611.500662 205.032558 625.392 205.032558 
z
" clip-path="url(#p5e4f8cc472)" style="fill: #f8f9fa; stroke: #1d3557; stroke-width: 1.4; stroke-linejoin: miter"/>
   </g>
   <g id="patch_6">
    <path d="M 155.967155 154.8 
Q 194.126099 154.8 230.943403 154.8 
" clip-path="url(#p5e4f8cc472)" style="fill: none; stroke: #1d3557; stroke-width: 1.2; stroke-linecap: round"/>
    <path d="M 225.743403 152.2 
L 230.943403 154.8 
L 225.743403 157.4 
" clip-path="url(#p5e4f8cc472)" style="fill: none; stroke: #1d3557; stroke-width: 1.2; stroke-linecap: round"/>
   </g>
   <g id="patch_7">
    <path d="M 348.029499 154.8 
Q 387.93359 154.8 426.496039 154.8 
" clip-path="url(#p5e4f8cc472)" style="fill: none; stroke: #1d3557; stroke-width: 1.2; stroke-linecap: round"/>
    <path d="M 421.296039 152.2 
L 426.496039 154.8 
L 421.296039 157.4 
" clip-path="url(#p5e4f8cc472)" style="fill: none; stroke: #1d3557; stroke-width: 1.2; stroke-linecap: round"/>
   </g>
   <g id="patch_8">
    <path d="M 427.842501 184.939535 
Q 387.93841 184.939535 349.375961 184.939535 
" clip-path="url(#p5e4f8cc472)" style="fill: none; stroke: #1d3557; stroke-width: 1.2; stroke-linecap: round"/>
    <path d="M 354.575961 187.539535 
L 349.375961 184.939535 
L 354.575961 182.339535 
" clip-path="url(#p5e4f8cc472)" style="fill: none; stroke: #1d3557; stroke-width: 1.2; stroke-linecap: round"/>
   </g>
   <g id="patch_9">
    <path d="M 232.292845 194.986047 
Q 194.133901 194.986047 157.316597 194.986047 
" clip-path="url(#p5e4f8cc472)" style="fill: none; stroke: #1d3557; stroke-width: 1.2; stroke-linecap: round"/>
    <path d="M 162.516597 197.586047 
L 157.316597 194.986047 
L 162.516597 192.386047 
" clip-path="url(#p5e4f8cc472)" style="fill: none; stroke: #1d3557; stroke-width: 1.2; stroke-linecap: round"/>
   </g>
   <g id="patch_10">
    <path d="M 540.091204 134.706977 
Q 555.552967 134.706977 569.673089 134.706977 
" clip-path="url(#p5e4f8cc472)" style="fill: none; stroke: #1d3557; stroke-width: 1.2; stroke-linecap: round"/>
    <path d="M 564.473089 132.106977 
L 569.673089 134.706977 
L 564.473089 137.306977 
" clip-path="url(#p5e4f8cc472)" style="fill: none; stroke: #1d3557; stroke-width: 1.2; stroke-linecap: round"/>
   </g>
   <g id="patch_11">
    <path d="M 581.489862 178.24186 
Q 557.299864 178.24186 534.451508 178.24186 
" clip-path="url(#p5e4f8cc472)" style="fill: none; stroke: #1d3557; stroke-width: 1.2; stroke-linecap: round"/>
    <path d="M 539.651508 180.84186 
L 534.451508 178.24186 
L 539.651508 175.64186 
" clip-path="url(#p5e4f8cc472)" style="fill: none; stroke: #1d3557; stroke-width: 1.2; stroke-linecap: round"/>
   </g>
   <g id="text_1">
    <!-- Idle -->
    <g transform="translate(91.047469 157.559375)scale(0.1 -0.1)">
     <defs>
      <path id="DejaVuSans-Bold-49" d="M 588 4666 
L 1791 4666 
L 1791 0 
L 588 0 
L 588 4666 
z
" transform="scale(0.015625)"/>
      <path id="DejaVuSans-Bold-64" d="M 2919 2988 
L 2919 4863 
L 4044 4863 
L 4044 0 
L 2919 0 
L 2919 506 
Q 2688 197 2409 53 
Q 2131 -91 1766 -91 
Q 1119 -91 703 423 
Q 288 938 288 1747 
Q 288 2556 703 3070 
Q 1119 3584 1766 3584 
Q 2128 3584 2408 3439 
Q 2688 3294 2919 2988 
z
M 2181 722 
Q 2541 722 2730 984 
Q 2919 1247 2919 1747 
Q 2919 2247 2730 2509 
Q 2541 2772 2181 2772 
Q 1825 2772 1636 2509 
Q 1447 2247 1447 1747 
Q 1447 1247 1636 984 
Q 1825 722 2181 722 
z
" transform="scale(0.015625)"/>
      <path id="DejaVuSans-Bold-6c" d="M 538 4863 
L 1656 4863 
L 1656 0 
L 538 0 
L 538 4863 
z
" transform="scale(0.015625)"/>
      <path id="DejaVuSans-Bold-65" d="M 4031 1759 
L 4031 1441 
L 1416 1441 
Q 1456 1047 1700 850 
Q 1944 653 2381 653 
Q 2734 653 3104 758 
Q 3475 863 3866 1075 
L 3866 213 
Q 3469 63 3072 -14 
Q 2675 -91 2278 -91 
Q 1328 -91 801 392 
Q 275 875 275 1747 
Q 275 2603 792 3093 
Q 1309 3584 2216 3584 
Q 3041 3584 3536 3087 
Q 4031 2591 4031 1759 
z
M 2881 2131 
Q 2881 2450 2695 2645 
Q 2509 2841 2209 2841 
Q 1884 2841 1681 2658 
Q 1478 2475 1428 2131 
L 2881 2131 
z
" transform="scale(0.015625)"/>
     </defs>
     <use xlink:href="#DejaVuSans-Bold-49"/>
     <use xlink:href="#DejaVuSans-Bold-64" x="37.207031"/>
     <use xlink:href="#DejaVuSans-Bold-6c" x="108.789062"/>
     <use xlink:href="#DejaVuSans-Bold-65" x="143.066406"/>
    </g>
   </g>
   <g id="text_2">
    <!-- Engaged\nNo Swing -->
    <g transform="translate(233.863906 157.520312)scale(0.1 -0.1)">
     <defs>
      <path id="DejaVuSans-Bold-45" d="M 588 4666 
L 3834 4666 
L 3834 3756 
L 1791 3756 
L 1791 2888 
L 3713 2888 
L 3713 1978 
L 1791 1978 
L 1791 909 
L 3903 909 
L 3903 0 
L 588 0 
L 588 4666 
z
" transform="scale(0.015625)"/>
      <path id="DejaVuSans-Bold-6e" d="M 4056 2131 
L 4056 0 
L 2931 0 
L 2931 347 
L 2931 1631 
Q 2931 2084 2911 2256 
Q 2891 2428 2841 2509 
Q 2775 2619 2662 2680 
Q 2550 2741 2406 2741 
Q 2056 2741 1856 2470 
Q 1656 2200 1656 1722 
L 1656 0 
L 538 0 
L 538 3500 
L 1656 3500 
L 1656 2988 
Q 1909 3294 2193 3439 
Q 2478 3584 2822 3584 
Q 3428 3584 3742 3212 
Q 4056 2841 4056 2131 
z
" transform="scale(0.015625)"/>
      <path id="DejaVuSans-Bold-67" d="M 2919 594 
Q 2688 288 2409 144 
Q 2131 0 1766 0 
Q 1125 0 706 504 
Q 288 1009 288 1791 
Q 288 2575 706 3076 
Q 1125 3578 1766 3578 
Q 2131 3578 2409 3434 
Q 2688 3291 2919 2981 
L 2919 3500 
L 4044 3500 
L 4044 353 
Q 4044 -491 3511 -936 
Q 2978 -1381 1966 -1381 
Q 1638 -1381 1331 -1331 
Q 1025 -1281 716 -1178 
L 716 -306 
Q 1009 -475 1290 -558 
Q 1572 -641 1856 -641 
Q 2406 -641 2662 -400 
Q 2919 -159 2919 353 
L 2919 594 
z
M 2181 2772 
Q 1834 2772 1640 2515 
Q 1447 2259 1447 1791 
Q 1447 1309 1634 1061 
Q 1822 813 2181 813 
Q 2531 813 2725 1069 
Q 2919 1325 2919 1791 
Q 2919 2259 2725 2515 
Q 2531 2772 2181 2772 
z
" transform="scale(0.015625)"/>
      <path id="DejaVuSans-Bold-61" d="M 2106 1575 
Q 1756 1575 1579 1456 
Q 1403 1338 1403 1106 
Q 1403 894 1545 773 
Q 1688 653 1941 653 
Q 2256 653 2472 879 
Q 2688 1106 2688 1447 
L 2688 1575 
L 2106 1575 
z
M 3816 1997 
L 3816 0 
L 2688 0 
L 2688 519 
Q 2463 200 2181 54 
Q 1900 -91 1497 -91 
Q 953 -91 614 226 
Q 275 544 275 1050 
Q 275 1666 698 1953 
Q 1122 2241 2028 2241 
L 2688 2241 
L 2688 2328 
Q 2688 2594 2478 2717 
Q 2269 2841 1825 2841 
Q 1466 2841 1156 2769 
Q 847 2697 581 2553 
L 581 3406 
Q 941 3494 1303 3539 
Q 1666 3584 2028 3584 
Q 2975 3584 3395 3211 
Q 3816 2838 3816 1997 
z
" transform="scale(0.015625)"/>
      <path id="DejaVuSans-Bold-5c" d="M 1644 -594 
L 0 4666 
L 691 4666 
L 2338 -594 
L 1644 -594 
z
" transform="scale(0.015625)"/>
      <path id="DejaVuSans-Bold-4e" d="M 588 4666 
L 1931 4666 
L 3628 1466 
L 3628 4666 
L 4769 4666 
L 4769 0 
L 3425 0 
L 1728 3200 
L 1728 0 
L 588 0 
L 588 4666 
z
" transform="scale(0.015625)"/>
      <path id="DejaVuSans-Bold-6f" d="M 2203 2784 
Q 1831 2784 1636 2517 
Q 1441 2250 1441 1747 
Q 1441 1244 1636 976 
Q 1831 709 2203 709 
Q 2569 709 2762 976 
Q 2956 1244 2956 1747 
Q 2956 2250 2762 2517 
Q 2569 2784 2203 2784 
z
M 2203 3584 
Q 3106 3584 3614 3096 
Q 4122 2609 4122 1747 
Q 4122 884 3614 396 
Q 3106 -91 2203 -91 
Q 1297 -91 786 396 
Q 275 884 275 1747 
Q 275 2609 786 3096 
Q 1297 3584 2203 3584 
z
" transform="scale(0.015625)"/>
      <path id="DejaVuSans-Bold-20" transform="scale(0.015625)"/>
      <path id="DejaVuSans-Bold-53" d="M 3834 4519 
L 3834 3531 
Q 3450 3703 3084 3790 
Q 2719 3878 2394 3878 
Q 1963 3878 1756 3759 
Q 1550 3641 1550 3391 
Q 1550 3203 1689 3098 
Q 1828 2994 2194 2919 
L 2706 2816 
Q 3484 2659 3812 2340 
Q 4141 2022 4141 1434 
Q 4141 663 3683 286 
Q 3225 -91 2284 -91 
Q 1841 -91 1394 -6 
Q 947 78 500 244 
L 500 1259 
Q 947 1022 1364 901 
Q 1781 781 2169 781 
Q 2563 781 2772 912 
Q 2981 1044 2981 1288 
Q 2981 1506 2839 1625 
Q 2697 1744 2272 1838 
L 1806 1941 
Q 1106 2091 782 2419 
Q 459 2747 459 3303 
Q 459 4000 909 4375 
Q 1359 4750 2203 4750 
Q 2588 4750 2994 4692 
Q 3400 4634 3834 4519 
z
" transform="scale(0.015625)"/>
      <path id="DejaVuSans-Bold-77" d="M 225 3500 
L 1313 3500 
L 1900 1088 
L 2491 3500 
L 3425 3500 
L 4013 1113 
L 4603 3500 
L 5691 3500 
L 4769 0 
L 3547 0 
L 2956 2406 
L 2369 0 
L 1147 0 
L 225 3500 
z
" transform="scale(0.015625)"/>
      <path id="DejaVuSans-Bold-69" d="M 538 3500 
L 1656 3500 
L 1656 0 
L 538 0 
L 538 3500 
z
M 538 4863 
L 1656 4863 
L 1656 3950 
L 538 3950 
L 538 4863 
z
" transform="scale(0.015625)"/>
     </defs>
     <use xlink:href="#DejaVuSans-Bold-45"/>
     <use xlink:href="#DejaVuSans-Bold-6e" x="68.310547"/>
     <use xlink:href="#DejaVuSans-Bold-67" x="139.501953"/>
     <use xlink:href="#DejaVuSans-Bold-61" x="211.083984"/>
     <use xlink:href="#DejaVuSans-Bold-67" x="278.564453"/>
     <use xlink:href="#DejaVuSans-Bold-65" x="350.146484"/>
     <use xlink:href="#DejaVuSans-Bold-64" x="417.96875"/>
     <use xlink:href="#DejaVuSans-Bold-5c" x="489.550781"/>
     <use xlink:href="#DejaVuSans-Bold-6e" x="526.074219"/>
     <use xlink:href="#DejaVuSans-Bold-4e" x="597.265625"/>
     <use xlink:href="#DejaVuSans-Bold-6f" x="680.957031"/>
     <use xlink:href="#DejaVuSans-Bold-20" x="749.658203"/>
     <use xlink:href="#DejaVuSans-Bold-53" x="784.472656"/>
     <use xlink:href="#DejaVuSans-Bold-77" x="856.494141"/>
     <use xlink:href="#DejaVuSans-Bold-69" x="948.876953"/>
     <use xlink:href="#DejaVuSans-Bold-6e" x="983.154297"/>
     <use xlink:href="#DejaVuSans-Bold-67" x="1054.345703"/>
    </g>
   </g>
   <g id="text_3">
    <!-- Moving -->
    <g transform="translate(465.189344 157.520312)scale(0.1 -0.1)">
     <defs>
      <path id="DejaVuSans-Bold-4d" d="M 588 4666 
L 2119 4666 
L 3181 2169 
L 4250 4666 
L 5778 4666 
L 5778 0 
L 4641 0 
L 4641 3413 
L 3566 897 
L 2803 897 
L 1728 3413 
L 1728 0 
L 588 0 
L 588 4666 
z
" transform="scale(0.015625)"/>
      <path id="DejaVuSans-Bold-76" d="M 97 3500 
L 1216 3500 
L 2088 1081 
L 2956 3500 
L 4078 3500 
L 2700 0 
L 1472 0 
L 97 3500 
z
" transform="scale(0.015625)"/>
     </defs>
     <use xlink:href="#DejaVuSans-Bold-4d"/>
     <use xlink:href="#DejaVuSans-Bold-6f" x="99.511719"/>
     <use xlink:href="#DejaVuSans-Bold-76" x="168.212891"/>
     <use xlink:href="#DejaVuSans-Bold-69" x="233.398438"/>
     <use xlink:href="#DejaVuSans-Bold-6e" x="267.675781"/>
     <use xlink:href="#DejaVuSans-Bold-67" x="338.867188"/>
    </g>
   </g>
   <g id="text_4">
    <!-- Jump /\nRespawn -->
    <g transform="translate(576.881063 157.559375)scale(0.1 -0.1)">
     <defs>
      <path id="DejaVuSans-Bold-4a" d="M 588 4666 
L 1791 4666 
L 1791 453 
Q 1791 -419 1317 -850 
Q 844 -1281 -116 -1281 
L -359 -1281 
L -359 -372 
L -172 -372 
Q 203 -372 395 -162 
Q 588 47 588 453 
L 588 4666 
z
" transform="scale(0.015625)"/>
      <path id="DejaVuSans-Bold-75" d="M 500 1363 
L 500 3500 
L 1625 3500 
L 1625 3150 
Q 1625 2866 1622 2436 
Q 1619 2006 1619 1863 
Q 1619 1441 1641 1255 
Q 1663 1069 1716 984 
Q 1784 875 1895 815 
Q 2006 756 2150 756 
Q 2500 756 2700 1025 
Q 2900 1294 2900 1772 
L 2900 3500 
L 4019 3500 
L 4019 0 
L 2900 0 
L 2900 506 
Q 2647 200 2364 54 
Q 2081 -91 1741 -91 
Q 1134 -91 817 281 
Q 500 653 500 1363 
z
" transform="scale(0.015625)"/>
      <path id="DejaVuSans-Bold-6d" d="M 3781 2919 
Q 3994 3244 4286 3414 
Q 4578 3584 4928 3584 
Q 5531 3584 5847 3212 
Q 6163 2841 6163 2131 
L 6163 0 
L 5038 0 
L 5038 1825 
Q 5041 1866 5042 1909 
Q 5044 1953 5044 2034 
Q 5044 2406 4934 2573 
Q 4825 2741 4581 2741 
Q 4263 2741 4089 2478 
Q 3916 2216 3909 1719 
L 3909 0 
L 2784 0 
L 2784 1825 
Q 2784 2406 2684 2573 
Q 2584 2741 2328 2741 
Q 2006 2741 1831 2477 
Q 1656 2213 1656 1722 
L 1656 0 
L 531 0 
L 531 3500 
L 1656 3500 
L 1656 2988 
Q 1863 3284 2130 3434 
Q 2397 3584 2719 3584 
Q 3081 3584 3359 3409 
Q 3638 3234 3781 2919 
z
" transform="scale(0.015625)"/>
      <path id="DejaVuSans-Bold-70" d="M 1656 506 
L 1656 -1331 
L 538 -1331 
L 538 3500 
L 1656 3500 
L 1656 2988 
Q 1888 3294 2169 3439 
Q 2450 3584 2816 3584 
Q 3463 3584 3878 3070 
Q 4294 2556 4294 1747 
Q 4294 938 3878 423 
Q 3463 -91 2816 -91 
Q 2450 -91 2169 54 
Q 1888 200 1656 506 
z
M 2400 2772 
Q 2041 2772 1848 2508 
Q 1656 2244 1656 1747 
Q 1656 1250 1848 986 
Q 2041 722 2400 722 
Q 2759 722 2948 984 
Q 3138 1247 3138 1747 
Q 3138 2247 2948 2509 
Q 2759 2772 2400 2772 
z
" transform="scale(0.015625)"/>
      <path id="DejaVuSans-Bold-2f" d="M 1644 4666 
L 2338 4666 
L 691 -594 
L 0 -594 
L 1644 4666 
z
" transform="scale(0.015625)"/>
      <path id="DejaVuSans-Bold-52" d="M 2297 2597 
Q 2675 2597 2839 2737 
Q 3003 2878 3003 3200 
Q 3003 3519 2839 3656 
Q 2675 3794 2297 3794 
L 1791 3794 
L 1791 2597 
L 2297 2597 
z
M 1791 1766 
L 1791 0 
L 588 0 
L 588 4666 
L 2425 4666 
Q 3347 4666 3776 4356 
Q 4206 4047 4206 3378 
Q 4206 2916 3982 2619 
Q 3759 2322 3309 2181 
Q 3556 2125 3751 1926 
Q 3947 1728 4147 1325 
L 4800 0 
L 3519 0 
L 2950 1159 
Q 2778 1509 2601 1637 
Q 2425 1766 2131 1766 
L 1791 1766 
z
" transform="scale(0.015625)"/>
      <path id="DejaVuSans-Bold-73" d="M 3272 3391 
L 3272 2541 
Q 2913 2691 2578 2766 
Q 2244 2841 1947 2841 
Q 1628 2841 1473 2761 
Q 1319 2681 1319 2516 
Q 1319 2381 1436 2309 
Q 1553 2238 1856 2203 
L 2053 2175 
Q 2913 2066 3209 1816 
Q 3506 1566 3506 1031 
Q 3506 472 3093 190 
Q 2681 -91 1863 -91 
Q 1516 -91 1145 -36 
Q 775 19 384 128 
L 384 978 
Q 719 816 1070 734 
Q 1422 653 1784 653 
Q 2113 653 2278 743 
Q 2444 834 2444 1013 
Q 2444 1163 2330 1236 
Q 2216 1309 1875 1350 
L 1678 1375 
Q 931 1469 631 1722 
Q 331 1975 331 2491 
Q 331 3047 712 3315 
Q 1094 3584 1881 3584 
Q 2191 3584 2531 3537 
Q 2872 3491 3272 3391 
z
" transform="scale(0.015625)"/>
     </defs>
     <use xlink:href="#DejaVuSans-Bold-4a"/>
     <use xlink:href="#DejaVuSans-Bold-75" x="37.207031"/>
     <use xlink:href="#DejaVuSans-Bold-6d" x="108.398438"/>
     <use xlink:href="#DejaVuSans-Bold-70" x="212.597656"/>
     <use xlink:href="#DejaVuSans-Bold-20" x="284.179688"/>
     <use xlink:href="#DejaVuSans-Bold-2f" x="318.994141"/>
     <use xlink:href="#DejaVuSans-Bold-5c" x="355.517578"/>
     <use xlink:href="#DejaVuSans-Bold-6e" x="392.041016"/>
     <use xlink:href="#DejaVuSans-Bold-52" x="463.232422"/>
     <use xlink:href="#DejaVuSans-Bold-65" x="540.234375"/>
     <use xlink:href="#DejaVuSans-Bold-73" x="608.056641"/>
     <use xlink:href="#DejaVuSans-Bold-70" x="667.578125"/>
     <use xlink:href="#DejaVuSans-Bold-61" x="739.160156"/>
     <use xlink:href="#DejaVuSans-Bold-77" x="806.640625"/>
     <use xlink:href="#DejaVuSans-Bold-6e" x="899.023438"/>
    </g>
   </g>
   <g id="text_5">
    <!-- trigger hold -->
    <g style="fill: #343a40" transform="translate(167.790938 157.283437)scale(0.09 -0.09)">
     <defs>
      <path id="DejaVuSans-74" d="M 1172 4494 
L 1172 3500 
L 2356 3500 
L 2356 3053 
L 1172 3053 
L 1172 1153 
Q 1172 725 1289 603 
Q 1406 481 1766 481 
L 2356 481 
L 2356 0 
L 1766 0 
Q 1100 0 847 248 
Q 594 497 594 1153 
L 594 3053 
L 172 3053 
L 172 3500 
L 594 3500 
L 594 4494 
L 1172 4494 
z
" transform="scale(0.015625)"/>
      <path id="DejaVuSans-72" d="M 2631 2963 
Q 2534 3019 2420 3045 
Q 2306 3072 2169 3072 
Q 1681 3072 1420 2755 
Q 1159 2438 1159 1844 
L 1159 0 
L 581 0 
L 581 3500 
L 1159 3500 
L 1159 2956 
Q 1341 3275 1631 3429 
Q 1922 3584 2338 3584 
Q 2397 3584 2469 3576 
Q 2541 3569 2628 3553 
L 2631 2963 
z
" transform="scale(0.015625)"/>
      <path id="DejaVuSans-69" d="M 603 3500 
L 1178 3500 
L 1178 0 
L 603 0 
L 603 3500 
z
M 603 4863 
L 1178 4863 
L 1178 4134 
L 603 4134 
L 603 4863 
z
" transform="scale(0.015625)"/>
      <path id="DejaVuSans-67" d="M 2906 1791 
Q 2906 2416 2648 2759 
Q 2391 3103 1925 3103 
Q 1463 3103 1205 2759 
Q 947 2416 947 1791 
Q 947 1169 1205 825 
Q 1463 481 1925 481 
Q 2391 481 2648 825 
Q 2906 1169 2906 1791 
z
M 3481 434 
Q 3481 -459 3084 -895 
Q 2688 -1331 1869 -1331 
Q 1566 -1331 1297 -1286 
Q 1028 -1241 775 -1147 
L 775 -588 
Q 1028 -725 1275 -790 
Q 1522 -856 1778 -856 
Q 2344 -856 2625 -561 
Q 2906 -266 2906 331 
L 2906 616 
Q 2728 306 2450 153 
Q 2172 0 1784 0 
Q 1141 0 747 490 
Q 353 981 353 1791 
Q 353 2603 747 3093 
Q 1141 3584 1784 3584 
Q 2172 3584 2450 3431 
Q 2728 3278 2906 2969 
L 2906 3500 
L 3481 3500 
L 3481 434 
z
" transform="scale(0.015625)"/>
      <path id="DejaVuSans-65" d="M 3597 1894 
L 3597 1613 
L 953 1613 
Q 991 1019 1311 708 
Q 1631 397 2203 397 
Q 2534 397 2845 478 
Q 3156 559 3463 722 
L 3463 178 
Q 3153 47 2828 -22 
Q 2503 -91 2169 -91 
Q 1331 -91 842 396 
Q 353 884 353 1716 
Q 353 2575 817 3079 
Q 1281 3584 2069 3584 
Q 2775 3584 3186 3129 
Q 3597 2675 3597 1894 
z
M 3022 2063 
Q 3016 2534 2758 2815 
Q 2500 3097 2075 3097 
Q 1594 3097 1305 2825 
Q 1016 2553 972 2059 
L 3022 2063 
z
" transform="scale(0.015625)"/>
      <path id="DejaVuSans-20" transform="scale(0.015625)"/>
      <path id="DejaVuSans-68" d="M 3513 2113 
L 3513 0 
L 2938 0 
L 2938 2094 
Q 2938 2591 2744 2837 
Q 2550 3084 2163 3084 
Q 1697 3084 1428 2787 
Q 1159 2491 1159 1978 
L 1159 0 
L 581 0 
L 581 4863 
L 1159 4863 
L 1159 2956 
Q 1366 3272 1645 3428 
Q 1925 3584 2291 3584 
Q 2894 3584 3203 3211 
Q 3513 2838 3513 2113 
z
" transform="scale(0.015625)"/>
      <path id="DejaVuSans-6f" d="M 1959 3097 
Q 1497 3097 1228 2736 
Q 959 2375 959 1747 
Q 959 1119 1226 758 
Q 1494 397 1959 397 
Q 2419 397 2687 759 
Q 2956 1122 2956 1747 
Q 2956 2369 2687 2733 
Q 2419 3097 1959 3097 
z
M 1959 3584 
Q 2709 3584 3137 3096 
Q 3566 2609 3566 1747 
Q 3566 888 3137 398 
Q 2709 -91 1959 -91 
Q 1206 -91 779 398 
Q 353 888 353 1747 
Q 353 2609 779 3096 
Q 1206 3584 1959 3584 
z
" transform="scale(0.015625)"/>
      <path id="DejaVuSans-6c" d="M 603 4863 
L 1178 4863 
L 1178 0 
L 603 0 
L 603 4863 
z
" transform="scale(0.015625)"/>
      <path id="DejaVuSans-64" d="M 2906 2969 
L 2906 4863 
L 3481 4863 
L 3481 0 
L 2906 0 
L 2906 525 
Q 2725 213 2448 61 
Q 2172 -91 1784 -91 
Q 1150 -91 751 415 
Q 353 922 353 1747 
Q 353 2572 751 3078 
Q 1150 3584 1784 3584 
Q 2172 3584 2448 3432 
Q 2725 3281 2906 2969 
z
M 947 1747 
Q 947 1113 1208 752 
Q 1469 391 1925 391 
Q 2381 391 2643 752 
Q 2906 1113 2906 1747 
Q 2906 2381 2643 2742 
Q 2381 3103 1925 3103 
Q 1469 3103 1208 2742 
Q 947 2381 947 1747 
z
" transform="scale(0.015625)"/>
     </defs>
     <use xlink:href="#DejaVuSans-74"/>
     <use xlink:href="#DejaVuSans-72" x="39.208984"/>
     <use xlink:href="#DejaVuSans-69" x="80.322266"/>
     <use xlink:href="#DejaVuSans-67" x="108.105469"/>
     <use xlink:href="#DejaVuSans-67" x="171.582031"/>
     <use xlink:href="#DejaVuSans-65" x="235.058594"/>
     <use xlink:href="#DejaVuSans-72" x="296.582031"/>
     <use xlink:href="#DejaVuSans-20" x="337.695312"/>
     <use xlink:href="#DejaVuSans-68" x="369.482422"/>
     <use xlink:href="#DejaVuSans-6f" x="432.861328"/>
     <use xlink:href="#DejaVuSans-6c" x="494.042969"/>
     <use xlink:href="#DejaVuSans-64" x="521.826172"/>
    </g>
   </g>
   <g id="text_6">
    <!-- power &gt; dead -->
    <g style="fill: #343a40" transform="translate(356.155453 157.283437)scale(0.09 -0.09)">
     <defs>
      <path id="DejaVuSans-70" d="M 1159 525 
L 1159 -1331 
L 581 -1331 
L 581 3500 
L 1159 3500 
L 1159 2969 
Q 1341 3281 1617 3432 
Q 1894 3584 2278 3584 
Q 2916 3584 3314 3078 
Q 3713 2572 3713 1747 
Q 3713 922 3314 415 
Q 2916 -91 2278 -91 
Q 1894 -91 1617 61 
Q 1341 213 1159 525 
z
M 3116 1747 
Q 3116 2381 2855 2742 
Q 2594 3103 2138 3103 
Q 1681 3103 1420 2742 
Q 1159 2381 1159 1747 
Q 1159 1113 1420 752 
Q 1681 391 2138 391 
Q 2594 391 2855 752 
Q 3116 1113 3116 1747 
z
" transform="scale(0.015625)"/>
      <path id="DejaVuSans-77" d="M 269 3500 
L 844 3500 
L 1563 769 
L 2278 3500 
L 2956 3500 
L 3675 769 
L 4391 3500 
L 4966 3500 
L 4050 0 
L 3372 0 
L 2619 2869 
L 1863 0 
L 1184 0 
L 269 3500 
z
" transform="scale(0.015625)"/>
      <path id="DejaVuSans-3e" d="M 678 3150 
L 678 3719 
L 4684 2266 
L 4684 1747 
L 678 294 
L 678 863 
L 3897 2003 
L 678 3150 
z
" transform="scale(0.015625)"/>
      <path id="DejaVuSans-61" d="M 2194 1759 
Q 1497 1759 1228 1600 
Q 959 1441 959 1056 
Q 959 750 1161 570 
Q 1363 391 1709 391 
Q 2188 391 2477 730 
Q 2766 1069 2766 1631 
L 2766 1759 
L 2194 1759 
z
M 3341 1997 
L 3341 0 
L 2766 0 
L 2766 531 
Q 2569 213 2275 61 
Q 1981 -91 1556 -91 
Q 1019 -91 701 211 
Q 384 513 384 1019 
Q 384 1609 779 1909 
Q 1175 2209 1959 2209 
L 2766 2209 
L 2766 2266 
Q 2766 2663 2505 2880 
Q 2244 3097 1772 3097 
Q 1472 3097 1187 3025 
Q 903 2953 641 2809 
L 641 3341 
Q 956 3463 1253 3523 
Q 1550 3584 1831 3584 
Q 2591 3584 2966 3190 
Q 3341 2797 3341 1997 
z
" transform="scale(0.015625)"/>
     </defs>
     <use xlink:href="#DejaVuSans-70"/>
     <use xlink:href="#DejaVuSans-6f" x="63.476562"/>
     <use xlink:href="#DejaVuSans-77" x="124.658203"/>
     <use xlink:href="#DejaVuSans-65" x="206.445312"/>
     <use xlink:href="#DejaVuSans-72" x="267.96875"/>
     <use xlink:href="#DejaVuSans-20" x="309.082031"/>
     <use xlink:href="#DejaVuSans-3e" x="340.869141"/>
     <use xlink:href="#DejaVuSans-20" x="424.658203"/>
     <use xlink:href="#DejaVuSans-64" x="456.445312"/>
     <use xlink:href="#DejaVuSans-65" x="519.921875"/>
     <use xlink:href="#DejaVuSans-61" x="581.445312"/>
     <use xlink:href="#DejaVuSans-64" x="642.724609"/>
    </g>
   </g>
   <g id="text_7">
    <!-- stop swing -->
    <g style="fill: #343a40" transform="translate(363.804047 199.478786)scale(0.09 -0.09)">
     <defs>
      <path id="DejaVuSans-73" d="M 2834 3397 
L 2834 2853 
Q 2591 2978 2328 3040 
Q 2066 3103 1784 3103 
Q 1356 3103 1142 2972 
Q 928 2841 928 2578 
Q 928 2378 1081 2264 
Q 1234 2150 1697 2047 
L 1894 2003 
Q 2506 1872 2764 1633 
Q 3022 1394 3022 966 
Q 3022 478 2636 193 
Q 2250 -91 1575 -91 
Q 1294 -91 989 -36 
Q 684 19 347 128 
L 347 722 
Q 666 556 975 473 
Q 1284 391 1588 391 
Q 1994 391 2212 530 
Q 2431 669 2431 922 
Q 2431 1156 2273 1281 
Q 2116 1406 1581 1522 
L 1381 1569 
Q 847 1681 609 1914 
Q 372 2147 372 2553 
Q 372 3047 722 3315 
Q 1072 3584 1716 3584 
Q 2034 3584 2315 3537 
Q 2597 3491 2834 3397 
z
" transform="scale(0.015625)"/>
      <path id="DejaVuSans-6e" d="M 3513 2113 
L 3513 0 
L 2938 0 
L 2938 2094 
Q 2938 2591 2744 2837 
Q 2550 3084 2163 3084 
Q 1697 3084 1428 2787 
Q 1159 2491 1159 1978 
L 1159 0 
L 581 0 
L 581 3500 
L 1159 3500 
L 1159 2956 
Q 1366 3272 1645 3428 
Q 1925 3584 2291 3584 
Q 2894 3584 3203 3211 
Q 3513 2838 3513 2113 
z
" transform="scale(0.015625)"/>
     </defs>
     <use xlink:href="#DejaVuSans-73"/>
     <use xlink:href="#DejaVuSans-74" x="52.099609"/>
     <use xlink:href="#DejaVuSans-6f" x="91.308594"/>
     <use xlink:href="#DejaVuSans-70" x="152.490234"/>
     <use xlink:href="#DejaVuSans-20" x="215.966797"/>
     <use xlink:href="#DejaVuSans-73" x="247.753906"/>
     <use xlink:href="#DejaVuSans-77" x="299.853516"/>
     <use xlink:href="#DejaVuSans-69" x="381.640625"/>
     <use xlink:href="#DejaVuSans-6e" x="409.423828"/>
     <use xlink:href="#DejaVuSans-67" x="472.802734"/>
    </g>
   </g>
   <g id="text_8">
    <!-- release trigger -->
    <g style="fill: #343a40" transform="translate(161.095781 209.525298)scale(0.09 -0.09)">
     <use xlink:href="#DejaVuSans-72"/>
     <use xlink:href="#DejaVuSans-65" x="38.863281"/>
     <use xlink:href="#DejaVuSans-6c" x="100.386719"/>
     <use xlink:href="#DejaVuSans-65" x="128.169922"/>
     <use xlink:href="#DejaVuSans-61" x="189.693359"/>
     <use xlink:href="#DejaVuSans-73" x="250.972656"/>
     <use xlink:href="#DejaVuSans-65" x="303.072266"/>
     <use xlink:href="#DejaVuSans-20" x="364.595703"/>
     <use xlink:href="#DejaVuSans-74" x="396.382812"/>
     <use xlink:href="#DejaVuSans-72" x="435.591797"/>
     <use xlink:href="#DejaVuSans-69" x="476.705078"/>
     <use xlink:href="#DejaVuSans-67" x="504.488281"/>
     <use xlink:href="#DejaVuSans-67" x="567.964844"/>
     <use xlink:href="#DejaVuSans-65" x="631.441406"/>
     <use xlink:href="#DejaVuSans-72" x="692.964844"/>
    </g>
   </g>
   <g id="text_9">
    <!-- A / B / Y -->
    <g style="fill: #343a40" transform="translate(537.885281 137.190414)scale(0.09 -0.09)">
     <defs>
      <path id="DejaVuSans-41" d="M 2188 4044 
L 1331 1722 
L 3047 1722 
L 2188 4044 
z
M 1831 4666 
L 2547 4666 
L 4325 0 
L 3669 0 
L 3244 1197 
L 1141 1197 
L 716 0 
L 50 0 
L 1831 4666 
z
" transform="scale(0.015625)"/>
      <path id="DejaVuSans-2f" d="M 1625 4666 
L 2156 4666 
L 531 -594 
L 0 -594 
L 1625 4666 
z
" transform="scale(0.015625)"/>
      <path id="DejaVuSans-42" d="M 1259 2228 
L 1259 519 
L 2272 519 
Q 2781 519 3026 730 
Q 3272 941 3272 1375 
Q 3272 1813 3026 2020 
Q 2781 2228 2272 2228 
L 1259 2228 
z
M 1259 4147 
L 1259 2741 
L 2194 2741 
Q 2656 2741 2882 2914 
Q 3109 3088 3109 3444 
Q 3109 3797 2882 3972 
Q 2656 4147 2194 4147 
L 1259 4147 
z
M 628 4666 
L 2241 4666 
Q 2963 4666 3353 4366 
Q 3744 4066 3744 3513 
Q 3744 3084 3544 2831 
Q 3344 2578 2956 2516 
Q 3422 2416 3680 2098 
Q 3938 1781 3938 1306 
Q 3938 681 3513 340 
Q 3088 0 2303 0 
L 628 0 
L 628 4666 
z
" transform="scale(0.015625)"/>
      <path id="DejaVuSans-59" d="M -13 4666 
L 666 4666 
L 1959 2747 
L 3244 4666 
L 3922 4666 
L 2272 2222 
L 2272 0 
L 1638 0 
L 1638 2222 
L -13 4666 
z
" transform="scale(0.015625)"/>
     </defs>
     <use xlink:href="#DejaVuSans-41"/>
     <use xlink:href="#DejaVuSans-20" x="68.408203"/>
     <use xlink:href="#DejaVuSans-2f" x="100.195312"/>
     <use xlink:href="#DejaVuSans-20" x="133.886719"/>
     <use xlink:href="#DejaVuSans-42" x="165.673828"/>
     <use xlink:href="#DejaVuSans-20" x="234.277344"/>
     <use xlink:href="#DejaVuSans-2f" x="266.064453"/>
     <use xlink:href="#DejaVuSans-20" x="299.755859"/>
     <use xlink:href="#DejaVuSans-59" x="331.542969"/>
    </g>
   </g>
   <g id="text_10">
    <!-- done -->
    <g style="fill: #343a40" transform="translate(546.066984 192.781112)scale(0.09 -0.09)">
     <use xlink:href="#DejaVuSans-64"/>
     <use xlink:href="#DejaVuSans-6f" x="63.476562"/>
     <use xlink:href="#DejaVuSans-6e" x="124.658203"/>
     <use xlink:href="#DejaVuSans-65" x="188.037109"/>
    </g>
   </g>
   <g id="text_11">
    <!-- Runtime State Machine -->
    <g style="fill: #1f2a44" transform="translate(24.768 37.590698)scale(0.13 -0.13)">
     <defs>
      <path id="DejaVuSans-Bold-74" d="M 1759 4494 
L 1759 3500 
L 2913 3500 
L 2913 2700 
L 1759 2700 
L 1759 1216 
Q 1759 972 1856 886 
Q 1953 800 2241 800 
L 2816 800 
L 2816 0 
L 1856 0 
Q 1194 0 917 276 
Q 641 553 641 1216 
L 641 2700 
L 84 2700 
L 84 3500 
L 641 3500 
L 641 4494 
L 1759 4494 
z
" transform="scale(0.015625)"/>
      <path id="DejaVuSans-Bold-63" d="M 3366 3391 
L 3366 2478 
Q 3138 2634 2908 2709 
Q 2678 2784 2431 2784 
Q 1963 2784 1702 2511 
Q 1441 2238 1441 1747 
Q 1441 1256 1702 982 
Q 1963 709 2431 709 
Q 2694 709 2930 787 
Q 3166 866 3366 1019 
L 3366 103 
Q 3103 6 2833 -42 
Q 2563 -91 2291 -91 
Q 1344 -91 809 395 
Q 275 881 275 1747 
Q 275 2613 809 3098 
Q 1344 3584 2291 3584 
Q 2566 3584 2833 3536 
Q 3100 3488 3366 3391 
z
" transform="scale(0.015625)"/>
      <path id="DejaVuSans-Bold-68" d="M 4056 2131 
L 4056 0 
L 2931 0 
L 2931 347 
L 2931 1625 
Q 2931 2084 2911 2256 
Q 2891 2428 2841 2509 
Q 2775 2619 2662 2680 
Q 2550 2741 2406 2741 
Q 2056 2741 1856 2470 
Q 1656 2200 1656 1722 
L 1656 0 
L 538 0 
L 538 4863 
L 1656 4863 
L 1656 2988 
Q 1909 3294 2193 3439 
Q 2478 3584 2822 3584 
Q 3428 3584 3742 3212 
Q 4056 2841 4056 2131 
z
" transform="scale(0.015625)"/>
     </defs>
     <use xlink:href="#DejaVuSans-Bold-52"/>
     <use xlink:href="#DejaVuSans-Bold-75" x="77.001953"/>
     <use xlink:href="#DejaVuSans-Bold-6e" x="148.193359"/>
     <use xlink:href="#DejaVuSans-Bold-74" x="219.384766"/>
     <use xlink:href="#DejaVuSans-Bold-69" x="267.1875"/>
     <use xlink:href="#DejaVuSans-Bold-6d" x="301.464844"/>
     <use xlink:href="#DejaVuSans-Bold-65" x="405.664062"/>
     <use xlink:href="#DejaVuSans-Bold-20" x="473.486328"/>
     <use xlink:href="#DejaVuSans-Bold-53" x="508.300781"/>
     <use xlink:href="#DejaVuSans-Bold-74" x="580.322266"/>
     <use xlink:href="#DejaVuSans-Bold-61" x="628.125"/>
     <use xlink:href="#DejaVuSans-Bold-74" x="695.605469"/>
     <use xlink:href="#DejaVuSans-Bold-65" x="743.408203"/>
     <use xlink:href="#DejaVuSans-Bold-20" x="811.230469"/>
     <use xlink:href="#DejaVuSans-Bold-4d" x="846.044922"/>
     <use xlink:href="#DejaVuSans-Bold-61" x="945.556641"/>
     <use xlink:href="#DejaVuSans-Bold-63" x="1013.037109"/>
     <use xlink:href="#DejaVuSans-Bold-68" x="1072.314453"/>
     <use xlink:href="#DejaVuSans-Bold-69" x="1143.505859"/>
     <use xlink:href="#DejaVuSans-Bold-6e" x="1177.783203"/>
     <use xlink:href="#DejaVuSans-Bold-65" x="1248.974609"/>
    </g>
   </g>
  </g>
 </g>
 <defs>
  <clipPath id="p5e4f8cc472">
   <rect x="10.8" y="10.8" width="698.4" height="288"/>
  </clipPath>
 </defs>
</svg>
